<svg width="34" height="31" viewBox="0 0 34 31" fill="none" xmlns="http://www.w3.org/2000/svg">
<path d="M28.824 20.8719C28.4134 21.9498 27.5965 23.2973 26.9114 24.1921C18.6994 34.9187 1.7587 29.9936 0.122655 17.0483C-0.924122 8.7656 4.84322 1.23213 13.0671 0.11533C13.3648 0.0749098 13.6646 0.0532264 13.9626 0.0159969C18.9307 -0.203763 23.8072 1.84549 26.8442 5.86841C27.082 6.18351 27.2965 6.51408 27.5518 6.81584C27.5578 6.33448 27.444 4.45108 27.7002 4.15193C27.9053 3.91236 28.3443 3.93191 28.5643 4.13868C28.8648 4.42113 28.7414 5.2342 28.7413 5.60077L28.7398 7.72326C28.7381 9.22905 28.8152 8.90339 29.2925 10.3503C30.1384 12.9146 30.0313 15.0766 30.0309 17.7389L30.0305 24.6947C30.2198 24.9212 30.3932 24.9757 30.6759 24.861C30.8982 24.4879 30.7919 23.9562 30.7909 23.537L30.7876 13.5182C30.7852 12.5664 30.7611 12.7622 31.5361 12.1639C32.9418 11.0784 32.7539 9.73152 32.7512 8.16968L32.7531 5.1514C32.7507 4.87394 32.6877 4.45263 32.8622 4.22206C33.1834 3.79731 33.9091 3.94599 33.9716 4.48323C34.0105 4.81691 33.9978 5.17243 33.9988 5.50913L33.9986 8.90617C33.9971 10.527 33.8304 11.7429 32.5355 12.9453C32.3616 13.1068 32.1623 13.2509 32.0146 13.4378V23.4904C32.0183 24.249 32.1437 25.0439 31.5669 25.6369C30.7579 26.4686 29.156 26.2025 28.88 24.992C28.767 24.4964 28.8231 23.8871 28.8232 23.3734L28.824 20.8719ZM14.2313 1.28513C6.64316 1.70911 0.833287 8.2007 1.25032 15.7893C1.66737 23.3778 8.15362 29.1937 15.7425 28.7836C23.3413 28.3729 29.1663 21.8764 28.7488 14.278C28.3312 6.67961 21.8293 0.86059 14.2313 1.28513Z" fill="#9CC6FF"/>
<path d="M15.6002 26.1707C9.45494 26.5146 4.19837 21.8034 3.86979 15.6574C3.54121 9.51143 8.26556 4.26657 14.4123 3.95344C20.5374 3.64137 25.7597 8.34537 26.0872 14.4696C26.4145 20.5939 21.7236 25.828 15.6002 26.1707ZM14.5663 5.17424C9.11906 5.39704 4.88407 9.99369 5.1072 15.4408C5.33041 20.8879 9.9273 25.1227 15.3744 24.899C20.821 24.6755 25.0552 20.0792 24.832 14.6326C24.6089 9.18601 20.0128 4.95151 14.5663 5.17424Z" fill="#9CC6FF"/>
<path d="M29.9871 10.4472C28.9942 10.5581 29.2523 9.30375 29.2538 8.69728L29.2539 7.02408C29.2539 6.58969 29.2062 4.64705 29.2962 4.35003C29.3559 4.15324 29.5776 4.01046 29.7522 3.92381C30.6547 3.9995 30.4618 4.77428 30.4617 5.43631L30.4619 7.05951C30.462 7.98632 30.4916 8.92344 30.4578 9.84927C30.4459 10.1747 30.307 10.3405 29.9871 10.4472Z" fill="#9CC6FF"/>
<path d="M31.7338 10.4472C31.4528 10.4574 31.1752 10.3916 31.0425 10.1104C30.8843 9.77505 30.9707 4.4582 31.0274 4.32753C31.1076 4.14277 31.2828 4.05399 31.4618 3.98862C32.498 3.92676 32.2201 5.1082 32.2201 5.7821L32.2207 9.21727C32.2208 9.69986 32.3446 10.2923 31.7338 10.4472Z" fill="#9CC6FF"/>
<path d="M10.1769 12.1014C9.13912 11.1845 9.57753 10.2792 10.265 9.29778C10.7483 8.60785 11.0273 8.1584 11.9682 8.06512C12.8918 7.9378 13.5734 8.93334 14.685 8.89808C15.8228 8.86207 16.8948 7.39908 18.2151 8.41148C18.4351 8.58019 18.5962 8.81421 18.7878 9.01247C19.5615 9.81351 19.7645 9.98428 19.9066 11.1251C20.4757 11.3645 21.0284 11.9722 21.2997 12.5093C21.7229 13.3466 21.475 12.9343 22.1294 13.5588C22.7573 14.1579 23.2415 14.9481 23.4149 15.8043C24.1767 19.5644 20.1459 22.2499 17.0299 20.1351C16.908 20.2818 16.7811 20.4247 16.6567 20.5692C15.9524 21.3801 15.1859 22.0654 14.1919 22.5057C11.3676 23.7568 8.19946 22.4259 6.97065 19.6302C5.85139 17.0836 6.74645 13.9115 9.2135 12.534C9.5236 12.3608 9.85302 12.2439 10.1769 12.1014ZM17.1516 11.1435C14.955 11.3197 13.315 13.2399 13.4847 15.437C13.6542 17.6341 15.5693 19.2799 17.7669 19.1171C19.9741 18.9535 21.6287 17.0283 21.4583 14.8216C21.288 12.615 19.3577 10.9664 17.1516 11.1435Z" fill="#9CC6FF"/>
<path d="M17.5832 17.3433C16.3496 17.521 15.2051 16.6664 15.0249 15.4333C14.8447 14.2001 15.6968 13.0538 16.9296 12.871C18.166 12.6876 19.3164 13.5428 19.4973 14.7797C19.678 16.0165 18.8204 17.1651 17.5832 17.3433Z" fill="#9CC6FF"/>
</svg>
