<svg width="37" height="32" viewBox="0 0 37 32" fill="none" xmlns="http://www.w3.org/2000/svg">
<path d="M3.18383 7.96569C2.79854 6.50639 3.30886 4.94521 4.8 4.33601C5.8544 3.90527 5.85169 4.44187 6.06376 3.27257C6.44705 1.15915 8.81088 -0.108916 10.8141 0.623744C11.8718 1.01056 11.5483 1.53075 12.5123 0.724837C13.0686 0.259765 13.7745 0.0275221 14.494 0.0114041C15.7057 -0.0962693 16.9331 0.569948 17.6462 1.52627C18.4562 2.61248 17.9512 2.53501 19.3401 2.49035C20.8137 2.44307 22.1622 3.88556 22.1448 5.32922C22.1401 5.7201 22.0645 6.06967 22.1476 6.45838C21.9612 6.62146 21.7382 6.72569 21.5118 6.8207C21.3309 6.61025 21.1163 6.43533 20.9259 6.23374C20.6785 5.51553 20.4964 5.00234 19.9313 4.4604C18.5137 3.10072 16.2694 3.11446 14.9044 4.56101C14.4057 5.08966 13.9531 5.99744 13.9727 6.73681C11.0022 7.90557 12.1619 10.9649 12.8837 9.89479C13.0892 9.58996 12.3778 8.42509 13.7766 7.69259C14.7467 7.18455 14.6438 7.65002 14.8049 6.47529C15.1586 3.89686 19.4681 3.04793 20.1649 6.73681C20.5279 6.97781 20.8402 7.35179 21.1093 7.51912C21.6064 7.82819 23.1146 6.6126 24.5784 9.02886C25.5144 10.5739 24.7604 12.2137 23.3103 13.0785C23.9728 14.4758 23.433 16.0665 21.9175 16.5676C21.0354 16.8593 20.4173 16.6432 19.6279 16.2478C18.8796 16.6357 18.0781 17.1878 17.6161 17.9123C17.169 18.6133 16.756 19.9323 17.0911 20.7473C17.3128 21.2866 17.7656 21.3602 17.7195 22.1193C17.6703 22.9262 17.1961 23.4314 16.6265 23.9408C14.9448 24.6379 11.5771 25.321 10.5766 23.2162C10.0407 22.0887 11.4044 21.4195 10.3599 19.3448C9.60557 17.8461 8.38311 17.8638 6.98763 17.3983C4.62453 19.234 1.83532 17.8925 1.97628 15.0146C1.48161 14.6858 1.02685 14.4336 0.65857 13.949C-0.802411 12.0266 0.271386 8.89371 2.85326 8.7724C4.29468 8.70469 3.50188 9.2384 4.35388 8.14784C4.95042 7.38433 6.09947 7.07029 6.97344 7.53078C8.25195 8.20443 7.60054 7.75045 8.47857 7.01135C9.78393 5.91265 10.7744 7.10247 11.2056 7.12272C12.0263 7.16132 11.5808 5.67436 9.59382 5.80164C8.69698 5.85913 8.06636 6.24712 7.48284 6.90351C6.11095 6.06904 4.34457 6.70382 3.48962 7.96569H3.18383ZM15.647 12.7145C15.0969 12.8803 15.1341 13.2897 15.0049 13.7758C14.6937 14.9459 13.7941 15.8282 12.5733 15.2382C11.3314 14.6382 11.3786 13.5638 10.8011 13.0136C10.5276 12.7531 10.0729 12.8749 9.90913 13.1943C9.51743 13.9579 10.9215 14.759 10.5381 15.5399C10.1265 16.3782 8.75547 15.6249 8.27382 15.1461C7.99648 14.8704 7.69103 14.3254 7.23054 14.4618C6.20732 14.7651 7.67837 15.838 7.81794 16.2478C7.78187 16.3843 7.74816 16.5216 7.70278 16.6555C10.1969 17.0909 11.1364 18.3506 11.6955 20.6839C11.7145 21.0255 11.736 21.418 11.6566 21.7522C11.5641 22.1419 11.2342 22.4149 11.4254 22.8414C12.192 24.5512 16.985 23.7048 16.8008 21.9771C16.7629 21.6205 16.4195 21.4611 16.2826 21.1528C15.6523 19.7334 16.5112 17.29 17.8787 16.4096C18.1648 16.2255 20.2765 15.4505 19.5316 14.8656C18.899 14.3689 17.4331 16.4592 16.2204 15.6287C15.2407 14.9579 17.3296 12.6216 15.647 12.7145Z" fill="#9CC6FF"/>
<path d="M23.4994 20.6839C24.5546 18.2008 26.6336 15.8882 29.4722 15.6588C31.2483 15.4739 32.9311 16.6374 33.5949 18.2574C33.7371 18.6044 33.8177 18.9737 33.9667 19.317L33.9824 19.3525C37.1911 20.4148 37.4738 23.2525 36.2355 26.0602C34.4326 30.1478 29.2912 32.4424 25.1055 30.5982C24.9595 30.7351 24.7852 30.8397 24.6173 30.9474C22.8074 31.947 20.7134 32.1431 18.9361 30.8908C16.9905 29.5198 16.7493 26.7642 18.0781 24.8836C18.7164 23.9801 19.6756 23.6314 20.5102 22.9692C21.4627 22.2136 22.204 20.9049 23.4994 20.6839ZM29.5873 16.5629C27.1923 16.765 25.6109 18.5153 24.6173 20.5383C25.6876 20.6975 26.6292 21.1419 27.2654 22.0425L27.6991 21.6327C29.1057 20.3405 31.0451 19.2337 32.9993 19.3079C32.6833 17.7023 31.2849 16.4046 29.5873 16.5629ZM32.7067 20.1682C30.7787 20.3824 29.0276 21.3809 27.766 22.8524C28.8172 25.5572 27.6751 27.9679 25.8388 29.938C27.1804 30.4084 27.5516 30.2984 28.8098 30.3628C31.2992 29.85 33.3993 28.916 34.8766 26.6872C35.6642 25.4989 36.265 23.9428 35.9648 22.5073C35.6455 20.9806 34.2707 19.9638 32.7067 20.1682ZM24.1364 21.4418C22.6992 21.6739 22.2112 22.7596 21.1854 23.6089C20.3748 24.2801 19.3629 24.6022 18.7296 25.489C17.1393 27.7156 18.6138 30.5346 21.3847 30.8348C22.8598 30.9048 23.9421 30.4467 25.0275 29.4571C26.8611 27.7853 28.3126 24.4414 26.3872 22.3378C25.8444 21.7447 24.9559 21.3107 24.1364 21.4418Z" fill="#9CC6FF"/>
<path d="M31.1937 18.8206C30.6828 18.8198 30.1928 18.0372 30.8788 17.8188C31.3647 17.9152 31.8228 18.6048 31.1937 18.8206Z" fill="#9CC6FF"/>
<path d="M27.6992 19.8038C27.1596 19.9107 26.496 19.0621 27.0605 18.8206C27.5415 18.7229 28.1301 19.4041 27.6992 19.8038Z" fill="#9CC6FF"/>
<path d="M34.4515 22.8524C34.0361 22.8462 33.4719 22.1425 33.9823 21.8433C34.5362 21.8203 34.958 22.4613 34.4515 22.8524Z" fill="#9CC6FF"/>
<path d="M30.7473 23.6774C30.2659 23.7015 29.7481 22.992 30.2974 22.6756C30.76 22.668 31.332 23.405 30.7473 23.6774Z" fill="#9CC6FF"/>
<path d="M25.6413 23.9408C25.1233 23.9732 24.7576 23.332 25.2565 23.0396C25.7444 23.0176 26.1551 23.6634 25.6413 23.9408Z" fill="#9CC6FF"/>
<path d="M21.9409 25.8441C21.441 25.9472 20.8466 25.1989 21.3847 24.8736C21.897 24.7958 22.4853 25.487 21.9409 25.8441Z" fill="#9CC6FF"/>
<path d="M32.7067 26.1281C32.7564 25.907 32.8191 25.7977 32.9993 25.6575C33.532 25.6379 34.0494 26.3136 33.4449 26.6259C33.1595 26.6652 32.8607 26.331 32.7067 26.1281Z" fill="#9CC6FF"/>
<path d="M24.8403 28.0341C24.3616 28.0406 23.5939 27.3172 24.284 27.0207C24.8258 27.0128 25.4825 27.6721 24.8403 28.0341Z" fill="#9CC6FF"/>
<path d="M29.9548 29.0408C29.4574 29.1471 28.6383 28.3923 29.2786 28.0341C29.8104 27.9943 30.5763 28.5688 29.9548 29.0408Z" fill="#9CC6FF"/>
<path d="M20.9259 29.7182C20.3739 29.7056 19.9494 28.9831 20.5636 28.7098C21.0847 28.7629 21.5405 29.4529 20.9259 29.7182Z" fill="#9CC6FF"/>
</svg>
