<svg width="38" height="32" viewBox="0 0 38 32" fill="none" xmlns="http://www.w3.org/2000/svg">
<path d="M18.5415 6.26772C18.2213 6.31891 17.8977 6.21652 17.7569 5.92845C17.409 5.21647 18.3621 4.51767 18.5886 3.91139C18.7604 3.45153 18.0511 3.13979 17.8524 2.75264C17.389 1.84972 17.7819 1.37525 18.2438 0.67543C18.4426 0.374266 18.488 0.161102 18.8593 0.0093988C19.2205 -0.0367935 19.5276 0.0858962 19.6738 0.408139C19.9108 0.931147 19.294 1.33532 19.1143 1.76726C18.8208 2.47219 20.857 3.09442 19.6529 4.81982C19.4988 5.04065 19.2986 5.23888 19.1642 5.47074C18.9622 5.81943 18.9988 6.08455 18.5415 6.26772Z" fill="#9CC6FF"/>
<path d="M14.0194 6.28032C13.7 6.28404 13.393 6.12431 13.3026 5.79957C13.1065 5.09426 14.1698 4.49249 13.9947 3.92231C13.9041 3.6271 13.3799 3.35837 13.2219 2.72128C13.004 1.84338 13.3922 1.53627 13.7512 0.922007C13.932 0.612905 13.8633 0.41821 14.2757 0.330286C14.5866 0.251123 14.8094 0.312599 14.9553 0.629951C15.208 1.17968 14.5741 1.69245 14.4287 2.16669C14.2391 2.78543 15.6219 3.08524 15.1557 4.6001C15.0576 4.91869 14.3235 6.11643 14.0194 6.28032Z" fill="#9CC6FF"/>
<path d="M23.3145 4.11528C23.3001 3.59146 22.6221 3.39556 22.4771 2.6418C22.3178 1.81435 22.5875 1.64495 22.8948 1.05392C23.102 0.65501 23.0567 0.391958 23.5731 0.299072C24.9727 0.444932 23.5806 1.99849 23.6713 2.36984C23.7425 2.66208 24.2888 2.97216 24.4336 3.51487C24.6825 4.44765 24.3759 4.67792 23.9716 5.44151C23.7631 5.83523 23.8357 6.15871 23.3145 6.28038C21.8654 6.12181 23.1119 4.62797 23.3145 4.11528Z" fill="#9CC6FF"/>
<path d="M15.6362 11.1503C15.6219 9.43282 17.044 8.18683 18.7012 8.08253C20.4496 7.95651 22.0777 9.38234 22.0573 11.1503C22.4476 11.1855 22.8409 11.2985 23.219 11.3984C28.1913 12.7119 33.0153 16.3481 34.0986 21.5995C35.189 21.6718 36.0986 21.4189 36.9754 22.2881C37.9395 23.2439 37.9059 25.1304 36.9447 26.0759C36.302 26.708 35.6858 26.7271 34.8348 26.7238C34.2715 27.82 33.3854 30.3121 32.6302 31.0615C31.6433 32.0408 30.7354 32.0004 29.4513 31.9996L19.0903 31.9984L8.54137 31.9996C5.91969 32.0005 5.22944 31.8862 4.03007 29.281L3.26163 27.6424C3.11949 27.3441 2.98674 27.0254 2.81612 26.7431L2.80424 26.7238L2.59834 26.7284C0.120659 26.7595 -0.758954 23.7655 0.723211 22.2976C1.51156 21.517 2.59128 21.5963 3.61899 21.5995C5.16925 15.9 9.84772 12.1141 15.6362 11.1503ZM18.8502 9.34923C17.8744 9.4046 17.1663 9.96793 16.8985 10.8928C17.5582 10.938 18.2517 10.7918 18.945 10.8255C19.5539 10.8152 20.1708 10.9323 20.7726 10.8928C20.5136 9.94568 19.823 9.39275 18.8502 9.34923ZM18.2435 12.098C14.0716 12.4548 10.1697 13.7322 7.36019 17.0569C6.311 18.2985 5.30703 20.0064 4.95352 21.5995C5.4778 21.6283 6.01178 21.5999 6.53724 21.5995H19.5151H32.7805C31.2664 15.5804 24.1784 11.7418 18.2435 12.098ZM34.5391 22.9048L3.53588 22.9044C2.94732 22.9045 2.07361 22.7581 1.62208 23.2256C1.21043 23.6516 1.22961 24.7324 1.67576 25.1315C2.11311 25.5228 2.70968 25.4627 3.25513 25.4616L34.1196 25.4624C34.7638 25.4623 35.5826 25.596 36.0767 25.086C36.514 24.6344 36.4988 23.5971 36.0224 23.1699C35.6318 22.8196 35.0271 22.8884 34.5391 22.9048ZM4.31408 26.7238L4.25558 26.7367C4.25157 26.9767 4.78574 27.8602 4.91291 28.1255C5.44336 29.232 5.83004 30.6997 7.31759 30.7177C8.99168 30.7379 10.6697 30.7144 12.3441 30.7144L29.6152 30.7152C30.863 30.7172 31.599 30.6477 32.1376 29.4512C32.5588 28.5462 33.0047 27.6494 33.3789 26.7238L7.55707 26.7237C6.47678 26.7236 5.39414 26.7075 4.31408 26.7238Z" fill="#9CC6FF"/>
<path d="M14.692 15.2332C14.4316 15.2872 14.1549 15.225 13.9676 15.0705C13.7805 14.9159 13.7115 14.6927 13.7871 14.4862C13.8627 14.2795 14.0714 14.1215 14.3332 14.0721C14.7319 13.997 15.1319 14.1926 15.2303 14.5107C15.3286 14.8289 15.0886 15.151 14.692 15.2332Z" fill="#9CC6FF"/>
<path d="M8.08922 20.3365C7.19255 20.3293 7.4553 19.4204 7.78099 18.893C8.51018 17.7122 10.8186 15.264 12.2107 14.9533C12.737 14.9987 13.1109 15.6303 12.6542 16.063C12.4708 16.2368 12.2093 16.3497 11.9933 16.4782C10.7732 17.2034 9.75173 18.1996 8.9468 19.4063C8.68388 19.8002 8.58618 20.231 8.08922 20.3365Z" fill="#9CC6FF"/>
</svg>
