<svg width="177" height="48" viewBox="0 0 177 48" fill="none" xmlns="http://www.w3.org/2000/svg">
<path d="M148.152 0.126474C149.824 -0.140506 151.888 0.0522619 153.552 0.360814C157.548 1.10202 160.744 3.61477 164.458 5.03805C167.467 6.19096 170.735 6.63008 173.67 8.03242C174.76 8.55283 175.971 9.27279 176.626 10.3142C176.994 10.9005 177.098 11.5786 176.904 12.245C176.48 13.6991 174.897 14.8249 173.721 15.6714C166.141 21.1286 156.165 23.9816 147.419 27.065C145.128 27.873 142.732 28.6047 140.517 29.5996C136.458 31.4223 133.003 34.4333 129.037 36.5063C132.523 38.1913 136.379 39.3982 140.002 40.7792C142.426 41.7037 144.952 42.9838 147.472 43.5541C147.091 41.9229 146.882 40.1732 146.895 38.4981C146.901 37.7316 146.891 36.7832 147.468 36.2126C147.707 36.1491 147.799 36.0863 148.049 36.1633C148.568 36.3234 148.937 36.7114 149.277 37.1197C150.263 38.3068 151.035 39.7815 151.872 41.0798C152.977 42.795 154.187 44.4674 155.19 46.2433C153.96 46.5401 152.696 46.6993 151.442 46.865C148.379 47.2702 145.289 47.7509 142.192 47.7269C138.717 47.6998 135.184 47.0901 131.741 46.6537C124.748 45.7672 117.625 44.6842 110.587 44.3322C107.693 44.1875 104.707 44.5518 101.814 44.7575C98.7889 44.9632 95.7588 45.0965 92.7269 45.1569C81.2676 45.4272 69.4078 44.6368 58.215 42.1126C56.0868 41.6325 53.599 41.2803 51.8367 39.9158C51.5247 39.6741 51.207 39.4403 50.891 39.2035C46.9688 38.9818 43.0125 38.3533 39.1199 37.8166C28.4992 36.352 17.746 34.3271 7.0351 33.7417C5.88742 31.8565 4.74006 29.9818 3.72572 28.0205C2.69044 25.9999 0.63404 23.2956 0 21.253C0.0849903 20.8844 0.165669 20.7197 0.484998 20.4961C0.978619 20.1503 1.61636 19.9994 2.20605 20.1438C3.10153 20.3637 3.80824 21.0677 4.4894 21.6478C6.33455 23.2186 8.0051 24.8808 9.7009 26.608C10.7928 27.7206 11.8808 29.005 13.1461 29.9171C13.6865 30.3067 14.2273 30.5068 14.8782 30.6288C16.1417 30.8653 17.5296 30.7722 18.8149 30.807L25.632 31.0571L48.9954 32.0314L90.0546 33.3026C93.3375 33.3986 96.6376 33.4279 99.9178 33.5711C103.251 33.7164 106.583 33.9914 109.923 33.9286C110.822 33.9117 111.665 33.8116 112.421 33.2976C112.595 32.9389 112.591 32.9475 112.484 32.5629C111.974 32.0468 111.295 31.9452 110.598 31.8839C107.526 31.6141 104.306 31.8531 101.212 31.7626L67.4878 31.0075C62.6788 30.8776 56.9028 30.989 52.2336 30.4763C53.834 29.1642 55.1676 27.5337 56.7954 26.2379C60.0022 23.6857 69.5498 16.9681 73.6284 17.5221C76.0423 17.85 78.2111 20.4007 79.6082 22.2184C85.018 20.3378 90.5341 18.6793 95.9784 16.8905L118.606 9.25462L134.797 3.74318C139.188 2.28018 143.522 0.630565 148.152 0.126474ZM153.201 6.56141C155.851 6.25963 158.536 6.1848 161.197 5.99789C158.15 3.97259 156.257 2.4634 152.398 2.73623C150.447 2.97457 147.375 3.59814 146.101 5.23205C145.703 5.74261 145.572 6.29628 145.667 6.93309C145.708 7.21331 145.802 7.46797 145.899 7.73249C146.642 8.11371 151.92 6.75418 153.201 6.56141ZM94.9496 27.9352C95.6704 27.2205 96.1659 26.5732 96.1782 25.5164C96.1841 25.0203 96.0403 24.6055 95.6664 24.2662C95.2125 23.8548 94.8603 23.877 94.2853 23.9182C93.5364 24.5307 93.1783 25.016 93.0828 25.9999C93.0308 26.5363 93.1352 27.1177 93.5312 27.5127C93.9503 27.9312 94.3907 27.9848 94.9496 27.9352ZM122.778 14.6669C122.149 15.1519 121.831 15.538 121.711 16.3408C121.625 16.9182 121.725 17.5061 122.098 17.9686C122.402 18.3452 122.773 18.5025 123.241 18.5949C123.993 17.923 124.429 17.3225 124.476 16.2796C124.496 15.8374 124.386 15.4004 124.076 15.07C123.754 14.7279 123.418 14.6564 122.966 14.6583C122.904 14.6586 122.841 14.6641 122.778 14.6669ZM108.703 19.1427C108.099 19.3882 107.746 19.7346 107.491 20.3446C107.199 21.035 107.218 21.8178 107.543 22.4931C107.743 22.8996 108.073 23.1903 108.477 23.3895C109.083 23.1364 109.554 22.9439 109.808 22.2892C110.095 21.549 110.069 20.7951 109.73 20.0773C109.518 19.6287 109.181 19.3001 108.703 19.1427ZM100.781 21.7664C100.195 22.6123 99.8303 23.3402 100.018 24.4023C100.076 24.7324 100.237 25.0785 100.504 25.2913C100.893 25.6011 101.357 25.6531 101.833 25.5857C102.488 24.8753 102.838 24.3044 102.809 23.3082C102.795 22.8568 102.641 22.4718 102.329 22.1399C101.978 21.7676 101.476 21.7023 100.993 21.7411C100.922 21.747 100.851 21.7577 100.781 21.7664ZM73.0821 19.2906C72.1186 19.7482 71.5147 20.3157 71.151 21.3389C70.5583 23.0076 70.9885 24.9313 71.7986 26.4556C72.4105 27.6073 73.2379 28.4187 74.4955 28.7999C74.8915 28.9197 75.2685 28.9976 75.6795 28.9182C73.9859 28.1918 72.712 26.8491 72.0515 25.1167C71.6145 23.9706 71.5129 22.6963 72.0207 21.5545C72.4906 20.4977 73.5428 20.0315 73.7864 19.5606C73.8193 19.4972 73.7814 19.4174 73.779 19.3457C73.5437 19.3189 73.3192 19.2949 73.0821 19.2906ZM130.314 12.3617C129.693 12.6133 129.238 12.8803 128.962 13.5205C128.681 14.1705 128.794 14.8855 129.095 15.5079C129.345 16.0261 129.722 16.3593 130.161 16.7134C130.94 16.2743 131.387 15.9294 131.656 15.0518C131.855 14.4039 131.809 13.7757 131.452 13.1913C131.166 12.722 130.827 12.5301 130.314 12.3617ZM115.183 17.0146C114.515 17.5359 114.17 17.9326 114.047 18.7929C113.963 19.3885 114.072 19.9662 114.455 20.4416C114.819 20.8937 115.216 21.0193 115.783 21.0713C116.527 20.5245 116.912 20.0127 117.045 19.0772C117.122 18.5306 116.998 17.8808 116.603 17.4697C116.19 17.0395 115.738 17.0457 115.183 17.0146Z" fill="white"/>
<path d="M58.5263 6.08718C58.8397 6.06224 59.1588 6.03545 59.4725 6.06994C60.0856 6.13737 60.3945 6.37818 60.7874 6.84316C62.2658 8.59439 63.2956 10.826 64.6954 12.6727C66.5585 15.1309 68.7811 17.1929 70.7128 19.5689C66.8113 21.7279 62.7327 23.8009 59.3337 26.7426C58.0012 27.8955 56.7917 29.2313 55.5621 30.4933C54.0449 28.4147 49.8982 18.1093 49.1244 15.3034C46.6267 15.2818 44.2728 15.5328 41.8611 14.7183C42.1598 14.1967 42.5324 13.7295 42.8954 13.2519L42.8843 13.1931C42.5355 12.8233 23.5697 9.91359 20.862 9.42305C19.1502 9.11296 16.5866 8.94205 15.0938 8.06752L15.059 7.86859C19.3356 3.97474 43.9455 8.83736 50.9837 8.42133C53.4678 8.27445 56.0837 6.72676 58.5263 6.08718Z" fill="white"/>
</svg>
