<svg width="87" height="81" viewBox="0 0 87 81" fill="none" xmlns="http://www.w3.org/2000/svg">
<path d="M43.668 7.97612C43.6726 7.97565 43.6773 7.97495 43.682 7.9746C50.7836 7.5728 57.7727 9.81233 63.1404 14.5093C68.4685 19.1717 71.7144 25.5244 72.1819 32.6057C72.2678 33.9082 72.234 35.223 72.2342 36.5279L72.2332 42.6768L72.2334 47.4935C72.2335 48.5828 72.2561 49.6768 72.1816 50.7641C71.7915 56.4563 69.7074 62.0218 65.9209 66.3343C61.2283 71.7305 54.5813 75.0375 47.4468 75.5255C47.2838 75.5443 47.1206 75.5609 46.9573 75.5752C45.425 75.7085 43.8508 75.6094 42.3276 75.4191C37.1662 74.8241 32.2948 72.7205 28.3228 69.3714C22.9519 64.8371 19.5904 58.3642 18.9706 51.3626C18.8456 49.81 18.8587 48.2442 18.8535 46.6875L18.8452 40.6802C18.8459 37.6887 18.701 34.6506 18.9576 31.6701C19.4424 26.2872 21.6071 21.193 25.1456 17.1077C29.8951 11.5768 36.4651 8.54242 43.668 7.97612ZM58.4248 65.8199C58.6456 65.6853 58.8436 65.5109 59.0446 65.3489C63.2184 62.1749 65.9528 57.0488 66.6541 51.8911C66.8432 50.5002 66.817 49.073 66.818 47.6723L66.8177 42.8109L66.8166 36.966C66.8157 35.2923 66.8601 33.6049 66.6797 31.9383C66.2935 28.3723 64.7711 24.7592 62.5953 21.9193C59.1905 17.3907 54.1083 14.4205 48.4915 13.6769C42.7072 12.9163 37.031 14.3156 32.3982 17.8774C28.0605 21.1463 25.2071 26.0115 24.4714 31.393C24.2574 33.0338 24.2756 34.6463 24.2762 36.2958L24.2789 41.1726L24.2802 46.939C24.2794 48.4629 24.2404 49.9911 24.3847 51.5098C24.776 55.3032 26.236 58.9075 28.595 61.9038C32.0318 66.3093 37.0837 69.1623 42.6312 69.8307C47.2592 70.3975 52.1398 69.5589 56.2214 67.2772C56.9478 66.8711 57.7731 66.4175 58.3915 65.8574C58.4038 65.8462 58.4138 65.8323 58.4248 65.8199Z" fill="white"/>
<path d="M45.5152 38.9373L51.3388 34.1116C52.4716 33.1726 53.6646 31.9898 54.9821 31.3227C55.7962 30.9105 56.7847 30.6826 57.6982 30.738C58.3175 30.7754 59.0602 30.89 59.4829 31.3856C59.7943 31.7508 59.8815 32.18 59.8389 32.6508C59.6178 35.0945 56.4043 37.5408 54.6475 39.0375L50.9433 42.1378C51.4852 44.4313 51.9056 46.7748 52.3608 49.088C52.4946 49.7644 52.6088 50.4534 52.7704 51.123C52.9422 52.272 53.2569 53.4155 53.4666 54.5611C52.9399 55.0064 52.4123 55.4745 51.756 55.7116C50.9009 54.6079 50.1528 53.387 49.3571 52.2371C48.0768 50.3869 46.7523 48.5553 45.5216 46.6725C44.3585 47.4153 43.233 48.241 42.093 49.0214C41.0147 49.7598 39.8695 50.474 38.8544 51.2966C38.8894 52.5753 39.0054 53.8624 38.9721 55.1409C38.5885 55.4813 38.183 55.7207 37.7055 55.9036C37.1285 54.8362 36.5033 53.7925 35.9009 52.7392C35.1329 52.9838 33.6842 53.776 32.9345 53.6027C32.8289 53.521 32.7591 53.4878 32.756 53.3381C32.7438 52.7315 33.9459 51.6534 34.3437 51.2204C33.127 50.4212 31.8831 49.6559 30.6599 48.8652C31.1582 48.3047 31.8585 47.8242 32.4948 47.4329C33.7729 47.6087 35.0398 48.041 36.3094 48.2927C37.0884 47.4867 37.8277 46.6402 38.5927 45.8207C39.1668 45.2057 39.8085 44.6029 40.3254 43.941C39.3225 43.493 31.2153 39.4382 30.9475 39.0857C30.9484 39.0017 30.9443 38.9863 30.9674 38.8961C31.0819 38.4495 31.995 37.8444 32.3802 37.6271C33.6431 37.7214 34.9178 37.9457 36.1771 38.0976C39.2823 38.4721 42.3867 38.8334 45.5152 38.9373Z" fill="white"/>
<path d="M34.4875 28.6682C35.2531 28.6203 35.9854 28.6856 36.6456 29.1249C37.356 29.5977 37.6942 30.3482 37.8535 31.1554C38.5799 31.0947 39.2834 31.1151 39.894 31.5666C40.5628 32.0611 40.7592 32.7488 40.8643 33.5306C39.5133 33.5421 38.1604 33.5231 36.8093 33.5189C34.6736 33.5166 32.5288 33.4739 30.3945 33.5468C30.3922 33.3367 30.3894 33.1256 30.3973 32.9155C30.4278 32.1081 30.7192 31.5422 31.3089 31.0086C31.665 30.9673 32.0276 30.9798 32.3858 30.9789C32.5216 30.567 32.6541 30.1704 32.8856 29.8003C33.2638 29.1956 33.8011 28.8385 34.4875 28.6682Z" fill="white"/>
<path d="M52.3608 49.088C52.3814 48.9606 52.3609 48.9583 52.461 48.8659C52.6561 48.6861 52.8025 48.4532 52.9799 48.2558C53.7485 47.4004 54.7727 46.4539 55.9953 46.4698C56.8233 46.474 57.6117 46.8244 58.1696 47.4361C58.4815 47.7735 58.7174 48.1527 58.8902 48.5788C59.5042 48.7967 60.0715 49.1181 60.3744 49.7267C60.6071 50.1938 60.5758 50.6319 60.4054 51.111C57.8631 51.1133 55.3117 51.0711 52.7704 51.1231C52.6088 50.4534 52.4946 49.7644 52.3608 49.088Z" fill="white"/>
<path d="M44.0843 15.5116C49.161 15.105 54.1969 16.6935 58.1214 19.9393C61.9245 23.09 64.3364 27.6101 64.8373 32.5233C64.9547 33.7998 64.9065 35.0758 64.9007 36.3553V41.5262L64.9076 46.4618C64.9168 47.9096 64.9633 49.3691 64.8412 50.8134C64.5122 54.6488 62.9936 58.2862 60.4974 61.2167C56.981 65.406 52.2211 67.5205 46.8441 67.9911C46.7838 67.9996 46.7234 68.0052 46.6625 68.0087C41.4403 68.3038 36.4461 66.6825 32.5228 63.1942C28.754 59.8627 26.466 55.1676 26.1654 50.1464C26.1053 49.0306 26.1442 47.8943 26.1449 46.7762V40.913C26.1423 35.3624 25.6167 30.4071 28.4222 25.3397C29.1165 24.0714 29.9518 22.8853 30.9125 21.8046C34.292 18.0398 39.032 15.7755 44.0843 15.5116ZM32.8968 23.3358C31.1023 25.2919 29.7025 27.7033 29.0384 30.285C28.4729 32.4839 28.5381 34.6518 28.5394 36.8973L28.5433 41.8485C28.546 44.501 28.4588 47.184 28.5716 49.8329C28.7323 54.1927 30.6535 58.3016 33.8959 61.2206C37.3385 64.3687 41.7249 65.7546 46.347 65.5292C49.779 65.3617 53.0882 64.3221 55.8675 62.2704C59.3548 59.5878 61.7777 55.9081 62.3627 51.5009C62.5314 50.2295 62.4971 48.9452 62.4974 47.6659V43.038L62.4964 37.0643C62.498 34.9775 62.5906 32.8842 62.141 30.8309C61.6468 28.5743 60.5525 26.3911 59.1449 24.5692C58.8384 24.1718 58.5171 23.7855 58.181 23.413C57.1851 23.7266 56.2189 23.9889 55.1752 24.0966C53.6397 24.2547 52.1062 24.2362 50.5648 24.2352L45.3968 24.2362L40.2738 24.2382C38.9393 24.2382 37.5944 24.2669 36.265 24.1317C35.1117 24.0196 33.9784 23.7519 32.8968 23.3358ZM52.6634 20.1014C47.8755 20.0982 43.0782 20.0338 38.2914 20.1073C38.4483 20.6868 39.047 21.171 39.5541 21.4608C39.9274 21.6741 40.2918 21.7913 40.7181 21.8387C41.8257 21.9622 49.7672 21.9642 50.6058 21.7294C51.0536 21.604 51.4478 21.3794 51.8168 21.0995C52.1449 20.7898 52.4274 20.49 52.6634 20.1014Z" fill="white"/>
<path d="M6.9467 3.61945C7.09043 3.81743 7.20313 4.01145 7.24583 4.2554C7.41768 5.23668 7.31968 6.33894 7.32959 7.33783L7.39551 16.218C7.40601 17.6074 7.33263 19.0476 7.43798 20.4309C7.45699 20.6808 7.48616 20.9487 7.63806 21.1566C7.81376 21.3971 8.09504 21.5461 8.38776 21.5845C8.64967 21.6189 8.93853 21.5766 9.1504 21.4086C9.31607 21.277 9.40205 21.103 9.43938 20.8979C9.61193 19.9484 9.4955 18.6848 9.52245 17.6919C9.60913 14.5022 9.61637 11.3108 9.67202 8.12008C9.68532 7.3628 9.70328 6.60493 9.70527 5.84765C9.70655 5.37866 9.6684 4.88224 9.72101 4.41651C9.75741 4.09463 9.85635 3.71978 10.1335 3.51993C10.3365 3.37352 10.6164 3.35462 10.8559 3.40373C11.1074 3.45542 11.4352 3.70135 11.524 3.95008C11.7377 4.54881 11.6744 7.56498 11.6818 8.40988C11.7125 11.2383 11.7742 14.0664 11.8671 16.8935C11.8987 18.0958 11.825 19.3375 11.9299 20.533C11.9503 20.7654 11.9839 21.0414 12.1155 21.2395C12.243 21.4317 12.436 21.5409 12.6618 21.576C12.967 21.621 13.2772 21.537 13.5178 21.3441C13.7059 21.1953 13.7827 21.0566 13.8184 20.8221C13.9876 19.7102 13.8699 18.0631 13.8681 16.8971L13.8609 8.63912C13.8602 7.12177 13.7624 5.53942 13.9313 4.03408C14.1464 3.71652 14.3912 3.49089 14.7773 3.41669C15.0006 3.37387 15.2223 3.40572 15.4035 3.54992C15.7312 3.81102 15.7934 4.27756 15.834 4.66909C15.9304 5.60056 15.9516 6.54975 16.0086 7.4853L16.3648 13.3767L16.7165 18.8361C16.8093 20.4714 16.9529 22.1761 16.6996 23.8036C16.414 25.6385 15.6243 27.4908 14.4483 28.9316C13.2056 30.5223 11.5318 31.7248 10.8771 33.7217C10.6766 34.3334 10.5901 35.0283 10.5538 35.669C10.4729 37.0944 10.5647 38.5571 10.5982 39.9844C10.6563 42.8716 10.7707 45.7575 10.941 48.6403C11.2723 55.0089 11.674 61.3736 12.146 67.7333L12.4433 71.9597C12.5554 73.5935 12.8116 75.4467 12.4323 77.0528C12.1653 78.1833 11.54 79.1229 10.5356 79.7253C9.57285 80.3027 8.37049 80.4494 7.28573 80.1726C5.86019 79.7975 4.75221 78.6755 4.39521 77.2453C3.9429 75.415 4.51911 70.2099 4.67358 68.0385C5.24314 59.818 5.7224 51.5915 6.11102 43.3605L6.32522 38.3475C6.3706 37.0176 6.52215 35.6236 6.20353 34.3186C5.52944 31.5577 2.93817 30.1082 1.55742 27.7594C0.726296 26.3455 0.254731 24.8664 0.0811315 23.2366C-0.107984 21.4611 0.0792652 19.6052 0.180998 17.8289C0.325081 15.1381 0.494363 12.4487 0.688845 9.76122C0.752778 8.67074 0.822195 7.5805 0.897212 6.49072C0.943528 5.73624 0.917862 4.86124 1.12401 4.13056C1.22621 3.76843 1.45744 3.5799 1.77454 3.40059C1.99445 3.39487 2.18287 3.40082 2.38552 3.4959C2.62049 3.60627 2.80773 3.80227 2.87902 4.05543C3.13078 4.94956 2.97597 6.66898 2.96932 7.62833L2.94342 16.7368C2.94493 17.9469 2.874 19.1832 2.9237 20.3905C2.93303 20.6175 2.95228 20.8627 3.03512 21.0761C3.11667 21.2863 3.29797 21.437 3.50586 21.5147C3.78761 21.6179 4.09888 21.6045 4.37083 21.4775C4.65223 21.345 4.81147 21.1271 4.88357 20.8279C5.09509 19.9495 4.97364 18.8615 4.99977 17.9497L5.14864 11.8623C5.16719 10.6686 5.12846 4.65591 5.41592 3.91858C5.4991 3.7052 5.72018 3.51573 5.93555 3.44585C6.30865 3.32475 6.6163 3.44935 6.9467 3.61945Z" fill="white"/>
<path d="M83.7733 0.837507C84.0958 0.829573 84.4758 0.88534 84.7161 1.12299C84.9191 1.32377 85.0848 1.6544 85.1312 1.93638C85.2913 2.90856 85.1815 4.56312 85.1814 5.61848L85.1825 13.3779L85.1822 33.0301C85.1844 38.1474 85.1456 43.2768 85.3733 48.3899C85.6286 54.1189 85.9718 59.8612 86.3521 65.5831L86.7354 71.7179C86.8173 73.0484 86.9479 74.3984 86.9174 75.7312C86.8877 77.0238 86.5038 78.3298 85.5335 79.2336C84.7587 79.9651 83.7219 80.3538 82.6571 80.3119C81.4888 80.2695 80.4941 79.7679 79.6994 78.9237C79.078 78.1401 78.7505 77.2596 78.6634 76.2645C78.5774 75.2835 78.6769 74.2831 78.7321 73.3016C78.8449 71.4678 78.9681 69.6349 79.1017 67.8025C79.5228 61.6505 79.9108 55.4962 80.2654 49.3401C80.3338 48.0331 80.6665 45.1524 80.4148 43.9874C80.01 42.1155 78.1458 40.9569 77.3835 39.2238C76.6453 37.5453 76.8938 35.2758 76.8956 33.4674C76.9025 27.101 77.2034 20.5927 78.2956 14.3128C78.775 11.5562 79.4395 8.8667 80.4486 6.25326C81.0042 4.81442 82.357 1.46295 83.7733 0.837507Z" fill="white"/>
</svg>
