<svg width="228" height="191" viewBox="0 0 228 191" fill="none" xmlns="http://www.w3.org/2000/svg">
<path d="M113.205 77.3787C113.44 77.3589 113.664 77.343 113.9 77.3518C116.344 77.4442 118.927 78.2609 120.632 80.0891C121.704 81.2279 122.276 82.748 122.222 84.3108C122.115 86.9899 119.93 87.7868 118.265 89.4091C117.864 89.7998 117.517 90.3349 117.525 90.9121C117.53 91.3083 117.573 91.5459 117.917 91.7828C118.425 92.1314 127.437 93.6122 129.02 94.0267C139.089 96.6633 148.388 101.324 155.793 108.761C166.663 119.89 172.693 134.865 172.569 150.421C165.861 150.747 159.019 150.492 152.299 150.492L115.189 150.473L75.2202 150.485C68.6444 150.47 61.9205 150.091 55.3669 150.484C55.3383 149.922 55.3379 149.358 55.3649 148.796C56.0582 131.827 62.9649 116.299 75.9188 105.13C81.4193 100.308 87.869 96.6926 94.8527 94.5166C97.0212 93.8811 99.2243 93.3678 101.45 92.9799C103.824 92.5836 106.682 92.5269 108.889 91.6082C109.482 91.3615 109.945 90.9073 110.407 90.4746L110.605 90.2857C108.598 88.55 106.198 87.4802 105.772 84.5409C105.546 82.9868 106.129 81.4421 107.102 80.2438C108.694 78.2851 110.806 77.6564 113.205 77.3787ZM63.6916 143.194C65.1331 143.1 69.0192 143.344 70.1307 142.47C70.6316 140.249 70.4412 137.912 70.92 135.695C73.6967 122.259 81.8532 110.547 93.4913 103.283C95.9574 101.725 98.4968 100.664 101.057 99.3281L100.985 99.1619L100.739 99.1547C88.138 102.193 77.5959 109.341 70.774 120.47C67.4016 125.972 62.9757 136.282 63.2593 142.87C63.5421 143.193 63.3814 143.112 63.6916 143.194Z" fill="white"/>
<path d="M49.6664 154.113C56.3946 153.676 63.3298 154.007 70.0763 154.006L108.593 154.004L155.361 153.994C162.984 153.998 170.732 153.709 178.341 154.034C179.054 154.064 179.761 154.192 180.413 154.49C181.112 154.81 181.612 155.272 181.826 156.033C182.024 156.737 181.671 157.53 181.266 158.088C179.074 161.108 173.411 162.044 169.964 162.527C166.724 163.042 163.354 163.129 160.082 163.418C159.928 163.892 159.774 164.371 159.577 164.829C158.903 166.399 157.279 167.441 155.732 168.008C154.185 168.576 152.456 168.737 150.819 168.812C146.077 169.031 141.259 168.819 136.51 168.82L109.373 168.827L88.0431 168.837C84.2169 168.841 80.2915 169.014 76.4768 168.768C74.8228 168.661 73.254 168.472 71.7462 167.73C69.8764 166.81 68.8288 165.331 68.16 163.402C62.903 163.121 57.4378 162.957 52.4256 161.2C50.5192 160.532 47.971 159.494 47.121 157.523C46.8612 156.92 46.718 155.949 47.0547 155.356C47.5744 154.44 48.739 154.275 49.6664 154.113Z" fill="white"/>
<path d="M201.047 78.4561C201.594 78.4327 202.015 78.514 202.422 78.8984C203.198 79.6322 203.166 82.2026 203.171 83.2549C203.298 105.909 202.854 128.57 203.649 151.217C203.837 157.665 204.255 164.106 204.904 170.524C205.286 174.683 206.1 179.23 205.858 183.383C205.749 185.275 205.029 187.115 203.541 188.349C202.163 189.491 200.041 190.091 198.267 189.835C196.273 189.546 194.941 188.397 193.817 186.803C193.361 185.845 192.936 184.969 192.867 183.889C192.547 178.901 193.507 173.62 193.904 168.643C194.462 161.315 194.828 153.974 194.999 146.627C195.059 144.381 195.529 141.35 194.984 139.194C194.388 136.835 192.372 134.856 191.139 132.786C190.209 131.223 189.368 129.486 188.917 127.717C186.869 119.677 188.321 105.21 190.39 96.9552C192.024 90.4309 194.958 82.1093 201.047 78.4561Z" fill="white"/>
<path d="M36.2048 80.0868C38.3432 82.5298 37.1608 108.461 39.0862 110.582C39.6812 110.351 39.9418 110.137 40.1937 109.537C41.2079 107.124 40.8731 103.147 40.9096 100.52C40.9501 97.5792 40.9195 82.7611 42.1722 80.7575C42.3749 80.433 42.263 80.5314 42.645 80.4509C43.9762 82.9122 45.3677 105.839 45.317 109.971C45.2924 111.984 45.1468 114.305 44.5026 116.223C43.8779 118.082 42.7521 120.131 41.5268 121.666C39.5864 124.096 36.6816 125.991 36.5527 129.383C36.4111 133.119 36.7098 136.967 36.8137 140.711C36.9795 149.411 37.4202 158.104 38.1354 166.777C38.4067 170.061 38.6633 173.349 38.9822 176.629C39.1873 178.737 39.5856 180.989 39.5027 183.105C39.4202 185.212 38.8609 187.077 37.2123 188.496C35.7891 189.707 33.926 190.271 32.0704 190.052C30.481 189.859 29.0062 189.087 28.0157 187.818C27.3529 186.96 26.9249 185.945 26.7741 184.871C26.3223 181.746 26.9023 178.403 27.1851 175.278C27.4635 171.969 27.7686 168.661 28.101 165.357C28.4746 161.559 28.7943 157.757 29.0597 153.95C29.3794 149.258 30.6146 130.906 29.577 127.674C28.9391 125.688 27.1831 124.148 25.8444 122.602C21.6322 117.737 21.2946 112.986 21.4481 106.817C21.5426 103.019 21.8599 99.2238 22.1288 95.4348C22.2986 93.0354 22.6746 82.0348 24.0312 80.8583C26.7848 81.7317 24.9729 107.896 26.7321 110.437C26.9205 110.709 26.9038 110.62 27.2747 110.656C30.0438 108.659 27.604 84.8935 30.1148 80.4275C32.3465 81.147 30.8534 108.556 32.7661 110.475L33.352 110.457C35.7252 108.649 33.5936 84.4917 36.2048 80.0868Z" fill="white"/>
<path d="M190.839 0.162916C192.994 -0.180991 195.653 0.0673204 197.795 0.464777C202.943 1.41955 207.06 4.65631 211.845 6.48969C215.72 7.9748 219.93 8.54044 223.711 10.3468C225.115 11.0172 226.674 11.9446 227.518 13.2861C227.992 14.0414 228.127 14.9148 227.876 15.7732C227.33 17.6462 225.292 19.0964 223.777 20.1869C214.012 27.2165 201.162 30.8916 189.896 34.8634C186.944 35.9042 183.858 36.8467 181.005 38.1283C175.777 40.4762 171.326 44.3548 166.217 47.0251C170.708 49.1956 175.674 50.7502 180.341 52.5292C183.465 53.72 186.718 55.3689 189.964 56.1035C189.473 54.0024 189.204 51.7486 189.221 49.5907C189.229 48.6034 189.216 47.3817 189.959 46.6467C190.266 46.565 190.385 46.484 190.707 46.5832C191.376 46.7895 191.852 47.2893 192.288 47.8152C193.558 49.3444 194.553 51.244 195.631 52.9163C197.055 55.1258 198.614 57.28 199.906 59.5676C198.321 59.95 196.693 60.155 195.078 60.3684C191.132 60.8905 187.152 61.5097 183.163 61.4787C178.687 61.4438 174.136 60.6584 169.701 60.0963C160.692 58.9543 151.517 57.5593 142.451 57.1059C138.723 56.9195 134.877 57.3887 131.151 57.6537C127.254 57.9187 123.35 58.0904 119.445 58.1682C104.684 58.5164 89.4067 57.4982 74.9888 54.2468C72.2474 53.6284 69.0428 53.1746 66.7727 51.417C66.3709 51.1056 65.9615 50.8045 65.5545 50.4995C60.5022 50.2139 55.4059 49.4043 50.3917 48.7129C36.7108 46.8264 22.8593 44.2179 9.06216 43.4638C7.5838 41.0355 6.10584 38.6206 4.79923 36.0942C3.46565 33.4913 0.816729 30.0078 0 27.3768C0.109479 26.902 0.213404 26.6898 0.624743 26.4018C1.26059 25.9563 2.08209 25.762 2.8417 25.948C3.99519 26.2312 4.90553 27.138 5.78295 27.8853C8.15976 29.9087 10.3117 32.0499 12.4961 34.2748C13.9026 35.7079 15.3041 37.3624 16.9339 38.5373C17.6301 39.0391 18.3266 39.2969 19.1652 39.454C20.7927 39.7586 22.5804 39.6388 24.2361 39.6837L33.0174 40.0057L63.1127 41.2608L116.003 42.8982C120.231 43.022 124.482 43.0597 128.708 43.2441C133.001 43.4313 137.293 43.7855 141.596 43.7046C142.753 43.6828 143.84 43.5539 144.813 42.8919C145.038 42.4298 145.033 42.4409 144.894 41.9454C144.237 41.2806 143.364 41.1497 142.466 41.0708C138.508 40.7233 134.36 41.0311 130.374 40.9145L86.9335 39.9419C80.7388 39.7745 73.2986 39.9181 67.284 39.2576C69.3454 37.5675 71.0634 35.4671 73.1602 33.798C77.291 30.5104 89.5895 21.8572 94.8433 22.5708C97.9528 22.9933 100.746 26.2788 102.546 28.6203C109.515 26.1979 116.62 24.0615 123.633 21.7573L152.781 11.9212L173.637 4.82172C179.293 2.93718 184.875 0.812253 190.839 0.162916ZM197.343 8.45199C200.757 8.06326 204.215 7.96687 207.643 7.72609C203.719 5.11724 201.281 3.17319 196.309 3.52464C193.796 3.83166 189.839 4.6349 188.198 6.73959C187.685 7.39726 187.516 8.11046 187.638 8.93076C187.692 9.29172 187.813 9.61976 187.938 9.96049C188.895 10.4516 195.693 8.7003 197.343 8.45199ZM122.308 35.9844C123.236 35.0637 123.875 34.2299 123.891 32.8686C123.898 32.2296 123.713 31.6953 123.231 31.2581C122.647 30.7282 122.193 30.7568 121.452 30.8099C120.488 31.5989 120.026 32.224 119.903 33.4913C119.836 34.1823 119.971 34.9312 120.481 35.4401C121.021 35.9792 121.588 36.0482 122.308 35.9844ZM158.154 18.893C157.344 19.5177 156.935 20.0151 156.78 21.0492C156.67 21.793 156.799 22.5502 157.279 23.146C157.67 23.6311 158.148 23.8338 158.752 23.9528C159.719 23.0873 160.282 22.3138 160.342 20.9703C160.367 20.4007 160.227 19.8378 159.827 19.4122C159.413 18.9715 158.979 18.8795 158.397 18.8818C158.317 18.8822 158.235 18.8894 158.154 18.893ZM140.024 24.6585C139.247 24.9746 138.791 25.4208 138.463 26.2066C138.087 27.0959 138.111 28.1043 138.53 28.9741C138.788 29.4977 139.212 29.8722 139.734 30.1288C140.514 29.8028 141.121 29.5549 141.448 28.7116C141.818 27.758 141.784 26.7869 141.347 25.8623C141.074 25.2844 140.64 24.8611 140.024 24.6585ZM129.819 28.038C129.064 29.1277 128.595 30.0654 128.836 31.4335C128.911 31.8587 129.119 32.3045 129.463 32.5786C129.964 32.9777 130.561 33.0447 131.175 32.9578C132.019 32.0427 132.469 31.3073 132.432 30.0241C132.414 29.4426 132.216 28.9468 131.814 28.5192C131.361 28.0396 130.715 27.9555 130.093 28.0055C130.002 28.013 129.91 28.0269 129.819 28.038ZM94.1397 24.8489C92.8985 25.4383 92.1206 26.1693 91.6522 27.4875C90.8886 29.637 91.4427 32.1149 92.4864 34.0784C93.2745 35.5619 94.3404 36.6071 95.9603 37.0982C96.4705 37.2525 96.956 37.3529 97.4855 37.2505C95.3039 36.3148 93.6629 34.5853 92.812 32.3537C92.2492 30.8773 92.1183 29.2359 92.7724 27.7651C93.3777 26.4038 94.7331 25.8032 95.0468 25.1967C95.0893 25.115 95.0405 25.0123 95.0373 24.9198C94.7343 24.8853 94.4451 24.8544 94.1397 24.8489ZM167.862 15.9235C167.062 16.2476 166.476 16.5915 166.12 17.4162C165.759 18.2535 165.904 19.1746 166.291 19.9762C166.614 20.6438 167.099 21.073 167.666 21.5292C168.669 20.9635 169.244 20.5193 169.591 19.3888C169.847 18.5542 169.788 17.745 169.328 16.9921C168.96 16.3876 168.523 16.1405 167.862 15.9235ZM148.371 21.9171C147.51 22.5887 147.066 23.0996 146.909 24.2078C146.799 24.975 146.941 25.7191 147.434 26.3316C147.902 26.9139 148.414 27.0757 149.144 27.1428C150.103 26.4383 150.599 25.779 150.77 24.574C150.869 23.8699 150.709 23.0329 150.201 22.5034C149.669 21.9492 149.086 21.9572 148.371 21.9171Z" fill="white"/>
<path d="M68.3898 7.84112C68.7937 7.80899 69.2046 7.77449 69.6088 7.81891C70.3986 7.90578 70.7964 8.21597 71.3025 8.81493C73.2069 11.0708 74.5334 13.9454 76.3366 16.3242C78.7364 19.4907 81.5995 22.1468 84.0878 25.2074C79.0621 27.9884 73.8083 30.6588 69.4299 34.4481C67.7135 35.9332 66.1554 37.6539 64.5716 39.2795C62.6172 36.602 57.2757 23.3272 56.2789 19.7129C53.0616 19.6851 50.0295 20.0084 46.9228 18.9592C47.3076 18.2873 47.7876 17.6855 48.2552 17.0703L48.2409 16.9945C47.7915 16.5181 23.361 12.7701 19.8732 12.1382C17.6681 11.7387 14.3659 11.5186 12.4429 10.3921L12.3981 10.1358C17.9069 5.12002 49.6078 11.3837 58.674 10.8478C61.8739 10.6586 65.2435 8.66499 68.3898 7.84112Z" fill="white"/>
</svg>
