<svg width="40" height="38" viewBox="0 0 40 38" fill="none" xmlns="http://www.w3.org/2000/svg">
<path d="M20.099 3.41257C20.1012 3.41235 20.1034 3.41201 20.1057 3.41184C23.5002 3.21979 26.841 4.29027 29.4067 6.53541C31.9535 8.76404 33.505 11.8006 33.7285 15.1854C33.7696 15.808 33.7534 16.4365 33.7535 17.0602L33.753 19.9994L33.7532 22.3017C33.7532 22.8224 33.764 23.3453 33.7284 23.8651C33.5419 26.586 32.5457 29.2462 30.7358 31.3076C28.4927 33.887 25.3155 35.4677 21.9052 35.701C21.8273 35.7099 21.7493 35.7179 21.6712 35.7247C20.9388 35.7884 20.1863 35.7411 19.4583 35.6501C16.9911 35.3657 14.6626 34.3602 12.764 32.7593C10.1968 30.5919 8.58997 27.4979 8.29369 24.1512C8.23396 23.409 8.24021 22.6606 8.2377 21.9165L8.23374 19.045C8.23407 17.6151 8.16481 16.1629 8.2875 14.7382C8.51921 12.1652 9.55394 9.73019 11.2453 7.77743C13.5156 5.13367 16.656 3.68326 20.099 3.41257ZM27.1527 31.0617C27.2582 30.9974 27.3528 30.914 27.4489 30.8366C29.444 29.3194 30.751 26.8691 31.0863 24.4038C31.1767 23.7389 31.1641 23.0568 31.1646 22.3872L31.1644 20.0635L31.1639 17.2696C31.1635 16.4696 31.1847 15.663 31.0985 14.8664C30.9139 13.1619 30.1862 11.4348 29.1462 10.0774C27.5187 7.91272 25.0894 6.49297 22.4046 6.13752C19.6397 5.77398 16.9265 6.44284 14.712 8.14537C12.6386 9.70788 11.2747 12.0334 10.9231 14.6058C10.8208 15.39 10.8295 16.1608 10.8298 16.9493L10.831 19.2804L10.8317 22.0367C10.8313 22.7651 10.8126 23.4956 10.8816 24.2215C11.0687 26.0348 11.7665 27.7576 12.8941 29.1898C14.5369 31.2956 16.9517 32.6594 19.6034 32.9789C21.8155 33.2498 24.1485 32.8489 26.0994 31.7583C26.4467 31.5642 26.8412 31.3474 27.1367 31.0796C27.1427 31.0743 27.1474 31.0677 27.1527 31.0617Z" fill="#0B73FE"/>
<path d="M20.2983 7.01454C22.725 6.8202 25.1319 7.57945 27.0079 9.13109C28.8258 10.6372 29.9788 12.7975 30.2182 15.1461C30.2743 15.7563 30.251 16.366 30.2483 16.9778L30.2481 19.4498L30.2515 21.8086C30.2559 22.5008 30.2785 23.1985 30.22 23.889C30.0628 25.7224 29.3368 27.4609 28.1436 28.8617C26.4627 30.8642 24.1877 31.8746 21.6175 32.0995C21.5885 32.1036 21.5599 32.1063 21.5306 32.108C19.0343 32.2492 16.647 31.4745 14.7716 29.8069C12.97 28.2145 11.8766 25.9703 11.7329 23.5701C11.7042 23.0367 11.7228 22.4937 11.7231 21.9592V19.1566C11.7219 16.5034 11.4705 14.135 12.8116 11.7127C13.1435 11.1063 13.5429 10.5393 14.0022 10.0227C15.6177 8.22305 17.8832 7.14063 20.2983 7.01454Z" fill="#0B73FE"/>
<path d="M14.9504 10.7544C15.4676 10.9534 16.0092 11.0815 16.5607 11.135C17.1962 11.1997 17.8388 11.1859 18.4768 11.1859L20.9254 11.1849L23.3957 11.1846C24.1326 11.1851 24.8654 11.1941 25.5994 11.1185C26.0984 11.067 26.5601 10.9415 27.0362 10.7915C27.1969 10.9697 27.3507 11.154 27.4972 11.3441C28.1701 12.215 28.6929 13.2586 28.9291 14.3374C29.144 15.3189 29.0999 16.3193 29.0992 17.3168L29.0996 20.1723L29.0995 22.3843C29.0993 22.996 29.1158 23.6098 29.0351 24.2176C28.7555 26.3243 27.5974 28.0829 25.9305 29.3652C24.6019 30.346 23.0201 30.8427 21.3796 30.9227C19.1701 31.0305 17.0738 30.3685 15.4282 28.8636C13.8781 27.4683 12.9599 25.5042 12.8831 23.4201C12.8292 22.1538 12.8708 20.8718 12.8695 19.6039L12.8676 17.2371C12.8669 16.1636 12.8358 15.1276 13.1061 14.0764C13.4235 12.8423 14.0926 11.6895 14.9504 10.7544Z" fill="white"/>
<path d="M20.9819 18.2119L23.7656 15.9053C24.3071 15.4564 24.8773 14.891 25.5071 14.5722C25.8962 14.3752 26.3687 14.2662 26.8053 14.2927C27.1014 14.3106 27.4564 14.3653 27.6585 14.6022C27.8073 14.7768 27.8489 14.9819 27.8286 15.207C27.7229 16.3751 26.1869 17.5444 25.3471 18.2598L23.5765 19.7417C23.8356 20.838 24.0365 21.9582 24.2541 23.0639C24.3181 23.3872 24.3727 23.7166 24.4499 24.0367C24.532 24.5858 24.6824 25.1325 24.7827 25.68C24.5309 25.8929 24.2787 26.1166 23.965 26.23C23.5562 25.7024 23.1987 25.1188 22.8184 24.5692C22.2064 23.6848 21.5733 22.8093 20.985 21.9093C20.429 22.2644 19.891 22.6591 19.3461 23.0321C18.8307 23.385 18.2833 23.7264 17.7981 24.1196C17.8148 24.7308 17.8702 25.3461 17.8543 25.9572C17.671 26.1199 17.4771 26.2343 17.2489 26.3217C16.9731 25.8115 16.6743 25.3126 16.3863 24.8092C16.0192 24.9261 15.3267 25.3048 14.9684 25.2219C14.9179 25.1829 14.8845 25.167 14.8831 25.0954C14.8772 24.8055 15.4518 24.2902 15.642 24.0832C15.0604 23.7012 14.4658 23.3354 13.8811 22.9574C14.1193 22.6895 14.4541 22.4598 14.7582 22.2728C15.3691 22.3568 15.9747 22.5634 16.5816 22.6838C16.9539 22.2985 17.3073 21.8939 17.673 21.5022C17.9474 21.2082 18.2541 20.9201 18.5012 20.6037C18.0218 20.3895 14.1466 18.4514 14.0186 18.2828C14.019 18.2427 14.0171 18.2353 14.0281 18.1922C14.0828 17.9787 14.5193 17.6895 14.7035 17.5857C15.3071 17.6307 15.9164 17.738 16.5184 17.8106C18.0026 17.9896 19.4865 18.1623 20.9819 18.2119Z" fill="#0B73FE"/>
<path d="M15.7107 13.3033C16.0767 13.2805 16.4267 13.3116 16.7423 13.5216C17.0819 13.7476 17.2435 14.1064 17.3196 14.4922C17.6669 14.4632 18.0032 14.473 18.295 14.6888C18.6147 14.9251 18.7085 15.2538 18.7588 15.6275C18.113 15.6331 17.4664 15.624 16.8205 15.622C15.7997 15.6208 14.7745 15.6004 13.7543 15.6353C13.7532 15.5349 13.7518 15.434 13.7556 15.3335C13.7702 14.9476 13.9095 14.6771 14.1913 14.422C14.3616 14.4023 14.5349 14.4083 14.7061 14.4078C14.771 14.211 14.8344 14.0214 14.945 13.8445C15.1258 13.5554 15.3826 13.3847 15.7107 13.3033Z" fill="#0B73FE"/>
<path d="M24.2541 23.0639C24.264 23.003 24.2542 23.0019 24.302 22.9578C24.3952 22.8718 24.4652 22.7605 24.5501 22.6661C24.9174 22.2572 25.407 21.8048 25.9914 21.8124C26.3872 21.8145 26.764 21.9819 27.0307 22.2743C27.1798 22.4356 27.2926 22.6169 27.3752 22.8205C27.6687 22.9247 27.9398 23.0783 28.0846 23.3692C28.1958 23.5925 28.1809 23.8019 28.0994 24.0309C26.8842 24.032 25.6646 24.0119 24.4499 24.0367C24.3727 23.7166 24.3181 23.3872 24.2541 23.0639Z" fill="#0B73FE"/>
<path d="M17.5288 9.21118C19.817 9.17605 22.1102 9.20689 24.399 9.20845C24.2862 9.39421 24.1511 9.53763 23.9942 9.68569C23.8179 9.81953 23.6291 9.92649 23.4151 9.98644C23.0142 10.0987 19.2184 10.098 18.689 10.039C18.4852 10.0163 18.3112 9.96012 18.1327 9.85818C17.8903 9.71966 17.6038 9.48828 17.5288 9.21118Z" fill="#0B73FE"/>
<path d="M3.3205 1.33009C3.3892 1.42473 3.44307 1.51747 3.46348 1.63407C3.54563 2.10312 3.49878 2.63 3.50352 3.10747L3.53503 7.35215C3.54005 8.01627 3.50497 8.7047 3.55533 9.36592C3.56442 9.48537 3.57836 9.61341 3.65097 9.71278C3.73495 9.82777 3.8694 9.89899 4.00932 9.91733C4.13452 9.93379 4.27259 9.91354 4.37386 9.83324C4.45305 9.77033 4.49415 9.68719 4.51199 9.58915C4.59447 9.13527 4.53882 8.53127 4.5517 8.0567C4.59313 6.532 4.59659 5.00652 4.62319 3.48138C4.62955 3.1194 4.63814 2.75715 4.63909 2.39517C4.6397 2.17099 4.62146 1.9337 4.64661 1.71109C4.66401 1.55723 4.7113 1.37805 4.8438 1.28253C4.94083 1.21254 5.07462 1.2035 5.18911 1.22698C5.30928 1.25169 5.46598 1.36924 5.50842 1.48813C5.61058 1.77433 5.5803 3.21604 5.58387 3.6199C5.59854 4.97189 5.62804 6.32372 5.67243 7.67504C5.68754 8.24976 5.6523 8.84328 5.70243 9.41471C5.71219 9.5258 5.72825 9.65774 5.79116 9.75243C5.85211 9.84428 5.94434 9.89648 6.05231 9.91326C6.19819 9.93479 6.34647 9.89464 6.46146 9.8024C6.55136 9.7313 6.58811 9.66499 6.60517 9.5529C6.68603 9.0214 6.62977 8.23409 6.62893 7.67677L6.62547 3.72948C6.62514 3.00419 6.5784 2.24783 6.6591 1.52829C6.76193 1.37649 6.87893 1.26864 7.06351 1.23317C7.17025 1.21271 7.2762 1.22793 7.36281 1.29686C7.51946 1.42166 7.54918 1.64467 7.56858 1.83182C7.6147 2.27706 7.6248 2.73077 7.65207 3.17796L7.82232 5.99403L7.99045 8.6036C8.03479 9.38527 8.10344 10.2001 7.98237 10.9781C7.84585 11.8551 7.46837 12.7405 6.90625 13.4292C6.31223 14.1896 5.51216 14.7643 5.1992 15.7189C5.10339 16.0113 5.06202 16.3434 5.04467 16.6497C5.00603 17.331 5.04991 18.0302 5.06592 18.7124C5.09369 20.0925 5.14834 21.4719 5.22976 22.8499C5.38813 25.8941 5.58014 28.9364 5.80577 31.9763L5.94786 33.9965C6.00145 34.7775 6.12391 35.6633 5.94262 36.431C5.81497 36.9714 5.51606 37.4205 5.03597 37.7084C4.57579 37.9844 4.00107 38.0546 3.48255 37.9222C2.80115 37.743 2.27154 37.2066 2.1009 36.523C1.88469 35.6482 2.16012 33.1601 2.23395 32.1222C2.5062 28.1928 2.73529 24.2606 2.92105 20.3262L3.02343 17.93C3.04513 17.2943 3.11757 16.628 2.96527 16.0042C2.64305 14.6845 1.40443 13.9917 0.744444 12.8689C0.347167 12.1931 0.12176 11.4861 0.0387806 10.707C-0.0516161 9.85833 0.0378885 8.97121 0.0865165 8.12217C0.155387 6.83598 0.236304 5.55046 0.329266 4.26584C0.359825 3.74459 0.393007 3.22346 0.428864 2.70255C0.451003 2.34191 0.438735 1.92367 0.537273 1.5744C0.586124 1.40131 0.696652 1.31119 0.848224 1.22548C0.953343 1.22274 1.04341 1.22559 1.14027 1.27104C1.25258 1.32379 1.34209 1.41748 1.37616 1.53849C1.4965 1.96588 1.4225 2.78776 1.41932 3.24633L1.40694 7.60014C1.40767 8.17855 1.37376 8.7695 1.39752 9.34662C1.40198 9.45509 1.41118 9.57231 1.45078 9.67431C1.48976 9.7748 1.57642 9.84684 1.67579 9.88398C1.81047 9.93328 1.95925 9.92687 2.08924 9.8662C2.22375 9.80285 2.29987 9.69868 2.33433 9.55569C2.43544 9.13583 2.37738 8.61576 2.38988 8.17989L2.46103 5.27013C2.4699 4.69959 2.45139 1.82552 2.58879 1.47308C2.62855 1.37108 2.73423 1.28052 2.83717 1.24711C3.01551 1.18923 3.16257 1.24879 3.3205 1.33009Z" fill="#0B73FE"/>
<path d="M38.495 0.000341623C38.6491 -0.00345046 38.8308 0.023206 38.9456 0.136801C39.0427 0.232775 39.1219 0.390815 39.1441 0.525602C39.2206 0.9903 39.1681 1.78117 39.168 2.28563L39.1686 5.99463L39.1684 15.3883C39.1695 17.8344 39.1509 20.2862 39.2598 22.7302C39.3818 25.4687 39.5458 28.2135 39.7276 30.9485L39.9108 33.881C39.95 34.5169 40.0124 35.1622 39.9978 35.7993C39.9837 36.4172 39.8001 37.0414 39.3363 37.4734C38.966 37.8231 38.4704 38.0089 37.9614 37.9889C37.403 37.9686 36.9275 37.7288 36.5476 37.3253C36.2506 36.9507 36.0941 36.5299 36.0524 36.0542C36.0113 35.5853 36.0589 35.1071 36.0853 34.6379C36.1392 33.7614 36.1981 32.8853 36.262 32.0094C36.4633 29.0688 36.6487 26.127 36.8182 23.1844C36.8509 22.5597 37.0099 21.1827 36.8896 20.6258C36.6962 19.7311 35.8051 19.1773 35.4407 18.3489C35.0878 17.5466 35.2066 16.4617 35.2075 15.5973C35.2108 12.5542 35.3546 9.44325 35.8767 6.44148C36.1058 5.12384 36.4235 3.83827 36.9058 2.58906C37.1713 1.90129 37.818 0.299303 38.495 0.000341623Z" fill="#0B73FE"/>
</svg>
