<svg width="155" height="148" viewBox="0 0 155 148" fill="none" xmlns="http://www.w3.org/2000/svg">
<path d="M77.8836 13.2237C77.8922 13.2229 77.9009 13.2216 77.9095 13.2209C91.0634 12.4767 104.009 16.6248 113.951 25.3248C123.82 33.9607 129.832 45.7275 130.698 58.8437C130.857 61.2562 130.795 63.6915 130.795 66.1085L130.793 77.4977L130.794 86.4194C130.794 88.4371 130.836 90.4634 130.698 92.4774C129.975 103.021 126.115 113.329 119.101 121.317C110.41 131.312 98.0976 137.438 84.8829 138.342C84.581 138.376 84.2787 138.407 83.9761 138.434C81.138 138.68 78.2222 138.497 75.4009 138.144C65.8407 137.042 56.8177 133.146 49.4606 126.943C39.5125 118.544 33.2862 106.555 32.1381 93.5859C31.9067 90.7101 31.9309 87.8099 31.9211 84.9266L31.9058 73.7995C31.9071 68.2587 31.6387 62.6314 32.1141 57.1106C33.012 47.1403 37.0216 37.7045 43.5757 30.1376C52.3729 19.893 64.5422 14.2727 77.8836 13.2237ZM105.217 120.364C105.626 120.115 105.992 119.792 106.365 119.492C114.096 113.613 119.161 104.118 120.459 94.5648C120.81 91.9885 120.761 89.3451 120.763 86.7507L120.762 77.746L120.76 66.92C120.759 63.8199 120.841 60.6943 120.507 57.6074C119.791 51.0023 116.972 44.3101 112.942 39.0499C106.635 30.6618 97.2216 25.1603 86.818 23.7829C76.1041 22.3742 65.5903 24.966 57.0092 31.5634C48.9748 37.6181 43.6896 46.6296 42.3269 56.5974C41.9306 59.6365 41.9643 62.6234 41.9654 65.6785L41.9704 74.7117L41.9727 85.3923C41.9712 88.2149 41.8991 91.0455 42.1664 93.8586C42.8911 100.885 45.5953 107.561 49.9647 113.111C56.3306 121.271 65.6879 126.555 75.9632 127.793C84.5354 128.843 93.5755 127.29 101.135 123.064C102.481 122.311 104.01 121.471 105.155 120.434C105.178 120.413 105.196 120.387 105.217 120.364Z" fill="white"/>
<path d="M78.6562 27.1811C88.0597 26.4281 97.3869 29.3707 104.656 35.3832C111.7 41.2192 116.168 49.5903 117.096 58.6909C117.313 61.0554 117.223 63.4181 117.212 65.7885V75.3686L117.225 84.5082C117.242 87.1905 117.329 89.894 117.103 92.5698C116.493 99.6741 113.68 106.411 109.057 111.839C102.543 119.599 93.7271 123.514 83.7676 124.386C83.6556 124.402 83.5447 124.412 83.4316 124.418C73.7586 124.965 64.5074 121.964 57.2402 115.502C50.2592 109.332 46.0218 100.635 45.4648 91.3344C45.3536 89.2675 45.4255 87.1635 45.4268 85.0922V74.2319C45.422 63.9505 44.4488 54.7735 49.6455 45.3871C50.9317 43.0374 52.4791 40.8404 54.2588 38.8383C60.5188 31.8648 69.2977 27.6697 78.6562 27.1811ZM57.9326 41.6733C54.6085 45.2967 52.0161 49.764 50.7861 54.5463C49.7386 58.6193 49.8599 62.634 49.8623 66.7934L49.8691 75.9653C49.8741 80.8786 49.7129 85.8468 49.9219 90.7534C50.2195 98.8293 53.7778 106.44 59.7842 111.847C66.1608 117.678 74.2842 120.243 82.8457 119.826C89.2027 119.516 95.3323 117.591 100.48 113.79C106.94 108.822 111.428 102.007 112.512 93.8432C112.824 91.488 112.76 89.1096 112.761 86.7397V78.1674L112.76 67.103C112.763 63.2375 112.933 59.3605 112.101 55.5571C111.185 51.3769 109.159 47.3333 106.552 43.9584C105.984 43.222 105.388 42.5073 104.766 41.8168C102.921 42.3979 101.132 42.8849 99.1982 43.0844C96.3538 43.3774 93.5137 43.342 90.6582 43.3403L81.0859 43.3412L71.5977 43.3452C69.1255 43.3452 66.6355 43.3983 64.1729 43.1479C62.0359 42.9402 59.9367 42.4443 57.9326 41.6733Z" fill="white"/>
<path d="M81.3051 70.5712L92.0919 61.633C94.1901 59.8936 96.3997 57.7029 98.84 56.4672C100.348 55.7038 102.179 55.2815 103.871 55.3842C105.018 55.4536 106.394 55.6658 107.177 56.5837C107.753 57.2601 107.915 58.0551 107.836 58.9273C107.427 63.4536 101.474 67.9846 98.2203 70.7569L91.3593 76.4993C92.3631 80.7475 93.1416 85.0882 93.9848 89.3729C94.2327 90.6256 94.4443 91.9018 94.7435 93.1422C95.0616 95.2703 95.6447 97.3885 96.033 99.5103C95.0575 100.335 94.0801 101.202 92.8646 101.641C91.2806 99.5969 89.8951 97.3355 88.4213 95.2057C86.0499 91.7787 83.5966 88.3862 81.317 84.8987C79.1626 86.2746 77.0779 87.8041 74.9664 89.2495C72.9691 90.6172 70.8479 91.9401 68.9677 93.4638C69.0325 95.8322 69.2473 98.2161 69.1857 100.584C68.4752 101.215 67.7241 101.658 66.8396 101.997C65.771 100.02 64.613 98.0867 63.4971 96.1358C62.0745 96.5887 59.3913 98.0562 58.0027 97.7351C57.8071 97.5838 57.6777 97.5222 57.672 97.245C57.6493 96.1215 59.876 94.1246 60.6129 93.3225C58.3592 91.8422 56.0552 90.4246 53.7895 88.9602C54.7124 87.9221 56.0096 87.032 57.1882 86.3072C59.5555 86.6328 61.9021 87.4335 64.2538 87.8998C65.6967 86.4068 67.0661 84.8388 68.483 83.321C69.5464 82.182 70.7349 81.0654 71.6924 79.8393C69.8347 79.0095 54.8183 71.4992 54.3222 70.8461C54.3239 70.6905 54.3163 70.662 54.3591 70.495C54.5711 69.6678 56.2625 68.5469 56.976 68.1445C59.3152 68.3191 61.6763 68.7347 64.0088 69.016C69.7603 69.7097 75.5104 70.3789 81.3051 70.5712Z" fill="white"/>
<path d="M60.8792 51.5505C62.2972 51.4619 63.6536 51.5827 64.8765 52.3965C66.1923 53.2721 66.8188 54.6622 67.1137 56.1574C68.4593 56.045 69.7624 56.0828 70.8932 56.9191C72.1321 57.8349 72.4957 59.1088 72.6904 60.5568C70.1881 60.5782 67.6823 60.543 65.1797 60.5352C61.2239 60.5309 57.2512 60.4518 53.298 60.5869C53.2937 60.1977 53.2885 59.8068 53.3032 59.4176C53.3596 57.922 53.8994 56.8739 54.9915 55.8855C55.6513 55.809 56.3229 55.8322 56.9863 55.8304C57.2378 55.0676 57.4833 54.3329 57.912 53.6474C58.6126 52.5274 59.6077 51.866 60.8792 51.5505Z" fill="white"/>
<path d="M93.9848 89.3729C94.0231 89.137 93.985 89.1326 94.1704 88.9615C94.5317 88.6285 94.8029 88.197 95.1316 87.8313C96.5552 86.2469 98.4523 84.4938 100.717 84.5234C102.25 84.5312 103.711 85.1801 104.744 86.3131C105.322 86.938 105.759 87.6405 106.079 88.4297C107.216 88.8334 108.267 89.4287 108.828 90.5558C109.259 91.4211 109.201 92.2325 108.885 93.12C104.176 93.1241 99.4507 93.0461 94.7435 93.1423C94.4442 91.9019 94.2327 90.6256 93.9848 89.3729Z" fill="white"/>
<path d="M67.9242 35.6934C76.7912 35.5572 85.6774 35.6767 94.5463 35.6828C94.1091 36.4026 93.5857 36.9584 92.9779 37.5321C92.2944 38.0507 91.5631 38.4652 90.7335 38.6975C89.1802 39.1325 74.4714 39.1299 72.4198 38.9013C71.6302 38.8133 70.956 38.5955 70.2645 38.2005C69.3251 37.6637 68.2148 36.7671 67.9242 35.6934Z" fill="#0B73FE"/>
<path d="M12.867 5.15415C13.1332 5.52086 13.3419 5.88022 13.421 6.33208C13.7393 8.14964 13.5578 10.1913 13.5762 12.0415L13.6983 28.4897C13.7177 31.0631 13.5818 33.7308 13.7769 36.293C13.8121 36.7559 13.8662 37.252 14.1475 37.6371C14.473 38.0827 14.994 38.3587 15.5361 38.4298C16.0213 38.4935 16.5563 38.4151 16.9487 38.1039C17.2556 37.8601 17.4149 37.5379 17.484 37.158C17.8036 35.3993 17.588 33.0587 17.6379 31.2198C17.7984 25.3116 17.8118 19.4003 17.9149 13.4904C17.9395 12.0877 17.9728 10.684 17.9765 9.28132C17.9789 8.41262 17.9082 7.49315 18.0057 6.6305C18.0731 6.0343 18.2563 5.33999 18.7698 4.96982C19.1458 4.69862 19.6642 4.66362 20.1078 4.75459C20.5735 4.85032 21.1807 5.30585 21.3452 5.76656C21.7411 6.87555 21.6237 12.4622 21.6375 14.0272C21.6944 19.2661 21.8087 24.5045 21.9807 29.7408C22.0393 31.9679 21.9027 34.2678 22.097 36.4821C22.1348 36.9126 22.197 37.4238 22.4408 37.7908C22.677 38.1467 23.0344 38.3489 23.4527 38.414C24.018 38.4974 24.5926 38.3418 25.0382 37.9844C25.3866 37.7089 25.529 37.4519 25.5951 37.0176C25.9084 34.958 25.6904 31.9072 25.6871 29.7475L25.6737 14.4518C25.6724 11.6413 25.4914 8.7104 25.804 5.92215C26.2025 5.33394 26.6559 4.91602 27.3712 4.77858C27.7848 4.69927 28.1953 4.75827 28.5309 5.02536C29.1379 5.50898 29.2531 6.37313 29.3283 7.09834C29.507 8.82363 29.5461 10.5818 29.6518 12.3146L30.3115 23.2269L30.9631 33.339C31.1349 36.368 31.4009 39.5256 30.9317 42.5401C30.4027 45.9388 28.94 49.3697 26.7618 52.0382C24.4599 54.9847 21.3596 57.212 20.1469 60.9108C19.7757 62.0438 19.6153 63.3309 19.5481 64.5176C19.3984 67.1579 19.5684 69.867 19.6305 72.5107C19.7381 77.8586 19.9499 83.2039 20.2653 88.5436C20.8791 100.34 21.6231 112.129 22.4974 123.908L23.048 131.737C23.2557 134.763 23.7302 138.195 23.0277 141.17C22.533 143.264 21.3748 145.005 19.5144 146.12C17.7312 147.19 15.5042 147.462 13.4949 146.949C10.8545 146.254 8.80223 144.176 8.14099 141.527C7.30319 138.137 8.37048 128.496 8.65659 124.474C9.71156 109.247 10.5993 94.0099 11.3191 78.7641L11.7158 69.4789C11.7999 67.0155 12.0806 64.4336 11.4904 62.0164C10.2418 56.9025 5.44219 54.2178 2.88472 49.8672C1.34527 47.2483 0.471822 44.5087 0.150275 41.4899C-0.200013 38.2011 0.146818 34.7635 0.335252 31.4735C0.602127 26.4895 0.915679 21.5081 1.27591 16.5302C1.39433 14.5104 1.5229 12.491 1.66185 10.4724C1.74764 9.07495 1.7001 7.45425 2.08194 6.10085C2.27124 5.4301 2.69953 5.08089 3.28687 4.74876C3.69421 4.73817 4.0432 4.74919 4.41856 4.9253C4.85377 5.12973 5.2006 5.49277 5.33263 5.96169C5.79896 7.61783 5.51221 10.8026 5.49989 12.5796L5.45192 29.4506C5.45473 31.692 5.32334 33.9819 5.4154 36.2183C5.43268 36.6386 5.46834 37.0928 5.62177 37.488C5.77282 37.8774 6.10863 38.1566 6.49371 38.3005C7.01557 38.4916 7.59211 38.4667 8.09582 38.2316C8.61704 37.9861 8.91201 37.5825 9.04555 37.0284C9.43733 35.4014 9.21238 33.3861 9.26078 31.6971L9.53652 20.4218C9.57088 18.211 9.49913 7.07392 10.0316 5.70821C10.1857 5.31298 10.5952 4.96204 10.9941 4.8326C11.6851 4.6083 12.255 4.83908 12.867 5.15415Z" fill="white"/>
<path d="M149.168 0.00132379C149.766 -0.0133706 150.469 0.0899235 150.915 0.530106C151.291 0.902003 151.597 1.51441 151.683 2.03671C151.98 3.83742 151.777 6.90206 151.776 8.85684L151.779 23.2292L151.778 59.6298C151.782 69.1083 151.71 78.609 152.132 88.0798C152.605 98.6913 153.24 109.327 153.945 119.926L154.655 131.289C154.806 133.753 155.048 136.254 154.992 138.722C154.937 141.117 154.226 143.536 152.429 145.21C150.993 146.565 149.073 147.285 147.101 147.207C144.937 147.128 143.094 146.199 141.622 144.636C140.471 143.184 139.865 141.553 139.703 139.71C139.544 137.893 139.729 136.04 139.831 134.222C140.04 130.826 140.268 127.431 140.515 124.037C141.295 112.642 142.014 101.242 142.671 89.8399C142.797 87.419 143.414 82.0832 142.947 79.9253C142.198 76.458 138.745 74.312 137.333 71.1019C135.965 67.993 136.426 63.7893 136.429 60.4397C136.442 48.6477 136.999 36.5927 139.022 24.9608C139.91 19.8549 141.141 14.8733 143.01 10.0326C144.039 7.36752 146.545 1.1598 149.168 0.00132379Z" fill="white"/>
</svg>
