<svg width="40" height="30" viewBox="0 0 40 30" fill="none" xmlns="http://www.w3.org/2000/svg">
<path d="M8.16926 4.09181C7.74373 2.04117 9.04829 0.0733504 11.206 0.0172694C12.5016 -0.132299 13.6774 0.709809 14.3425 1.763C15.8423 1.33096 17.3138 1.88007 18.2052 3.17041C19.4632 2.30402 20.8417 2.66256 21.5529 3.99426C22.2066 3.91008 22.7422 3.96332 23.2477 4.45351C24.0966 2.5153 25.9707 2.20423 27.7929 2.97391C29.6776 -0.321558 34.6157 1.78121 33.6131 5.36794C34.9636 5.65169 35.9518 6.48371 36.1553 7.91974C39.2486 8.21873 40.3527 12.6632 37.063 14.3885C37.0201 15.3069 37.1512 15.3617 36.6931 16.3224C37.1955 16.3132 37.972 16.1394 38.1939 16.7485C38.4775 17.5275 37.6654 19.9176 37.3392 20.6103C35.7809 23.9192 33.4086 25.9356 29.9852 27.1685L29.5664 27.3145C29.1418 29.5531 27.7348 29.9993 25.8186 29.9997H15.1288C12.7366 29.9994 11.0437 30.0888 10.3051 27.3145C5.95863 25.928 1.90925 21.821 1.83559 17.089C1.82018 16.0988 2.92264 16.321 3.60869 16.3224C3.51272 16.0198 3.4288 15.72 3.37844 15.406C0.538786 14.6136 0.0817016 11.4411 2.51703 9.79728C2.51612 9.45509 2.47512 9.11309 2.49902 8.77108C2.63287 6.85507 4.25658 5.71394 6.09697 5.84727C6.48952 4.93907 7.20875 4.34787 8.16926 4.09181ZM11.206 1.36943C10.0787 1.51242 9.28205 2.40845 9.44195 3.55934C9.51461 4.08206 9.96987 4.52682 9.58541 5.04266C9.20271 5.55618 7.01958 5.21566 7.26273 7.07165C7.38918 8.03671 8.00035 7.98357 8.30881 8.52124C8.61244 9.05037 8.21423 9.5467 9.03324 10.1658C9.29469 10.3634 9.59767 10.5058 9.87938 10.6719C11.0344 11.3528 11.7712 12.1316 12.8055 12.9157C12.7941 12.1029 13.0648 11.2832 13.4266 10.5622L11.4516 9.6371C10.8949 9.37649 9.65277 9.0251 10.1138 8.16196C10.5026 7.43409 11.8173 8.29789 12.4309 8.56658C12.2452 7.96108 11.941 7.41263 11.8252 6.78316C10.3574 4.31257 12.0823 4.00568 12.4904 4.85526C12.8484 5.60078 13.4155 7.15183 13.6438 7.91974C13.807 7.51976 14.0781 6.80026 14.3185 6.46355C14.6285 6.02919 15.3172 6.04443 15.5256 6.5808C15.6862 6.99397 14.795 8.62577 14.5862 9.10565C15.7111 8.08809 16.9364 7.68505 18.4424 7.68198C18.2392 6.78567 17.3548 7.2283 17.1603 6.48074C17.0668 6.12126 17.2982 5.76151 17.3607 5.41412C17.6028 4.06793 16.3187 2.66851 14.9378 3.00838C14.499 3.11643 14.0518 3.50331 13.5958 3.24307C13.0763 2.9465 13.0365 1.19736 11.206 1.36943ZM30.4029 2.69202C28.7131 2.97047 29.0292 4.40901 28.2464 4.56036C27.4641 4.71162 26.8278 3.57513 25.5152 4.05502C23.2635 4.87821 24.7616 6.99249 24.3004 7.68207C23.9039 8.27475 23.0213 7.85517 22.2731 8.68189C23.995 9.68802 24.9436 10.3728 26.1889 12.06C26.475 11.5258 26.7483 10.9144 26.9645 10.3469C26.6804 9.78939 25.7369 8.21101 25.9109 7.65448C26.0127 7.32845 26.3877 7.12024 26.715 7.2322C27.2089 7.40102 27.5878 8.50991 27.7929 9.01302C27.9933 8.4249 28.7149 6.4183 29.05 5.92466C29.3385 5.49941 30.0107 5.57467 30.2141 6.05102C30.4134 6.51771 29.4385 8.42833 29.2473 9.01302C29.8084 8.8233 30.9151 8.22012 31.3343 8.90227C31.5492 9.45574 31.2734 9.79227 30.7541 9.9674C29.9481 10.2394 29.0644 10.5394 28.2558 10.7875C28.1779 11.003 28.0842 11.2103 27.99 11.4189C28.6792 11.3387 30.7658 10.5447 30.8468 11.6783C30.905 12.4962 29.7998 12.5048 29.2389 12.6013C28.6162 12.7086 27.9937 12.8191 27.3692 12.9157C27.2774 13.149 27.1821 13.3735 27.0471 13.5854C27.4144 14.4969 27.7181 15.3417 27.847 16.3224C28.3903 16.3239 29.2279 16.4933 29.6573 16.0677C30.5723 15.1611 29.3953 14.1574 31.3908 14.5371C32.804 14.806 34.0236 13.108 33.2918 11.8556C32.5963 10.6651 32.3695 10.6699 33.7525 10.0753C35.1887 9.45788 35.1461 7.35744 33.7051 6.76959C32.1977 6.15471 32.0964 6.40511 32.3615 4.75362C32.5435 3.61936 31.5276 2.59316 30.4029 2.69202ZM19.44 4.09181C19.1547 4.1758 18.927 4.30253 18.6733 4.45351C18.7036 4.95412 18.7128 5.41886 18.6281 5.91649C19.4304 6.26676 19.7386 7.00178 19.7977 7.81949C20.2152 7.88192 20.6147 8.02296 21.016 8.14988C21.1628 7.88666 21.3316 7.64705 21.5529 7.44051C21.9783 7.0814 22.4104 6.88861 22.9559 6.78316C22.8653 6.25729 22.8134 5.45128 22.1385 5.36794C21.5978 5.30932 20.9466 5.58888 20.5533 5.08131C20.1954 4.61936 20.1927 3.98264 19.44 4.09181ZM5.57324 7.20117C4.4992 7.30216 3.74592 8.18221 3.84628 9.26351C3.96946 10.5905 4.6616 10.2569 3.15826 11.0309C1.80194 11.7291 2.19219 13.5978 3.52588 14.0626C4.55124 14.42 4.54232 14.1407 4.73834 15.273C4.79102 15.6582 4.92748 15.9763 5.09707 16.3224H5.81462C4.60198 13.8313 4.14875 10.6292 5.57305 8.13083C5.7795 7.76876 6.3798 7.16205 5.57324 7.20117ZM6.67191 8.90227C5.60882 11.2727 6.02924 14.1664 7.40061 16.3224H9.60575C9.09632 15.8016 6.43034 12.9699 7.25483 12.1988C8.0626 11.4432 8.57574 12.7947 8.82911 13.2957L8.85197 13.3214C9.64998 14.2292 10.882 16.2385 12.165 16.332C12.4724 16.3544 12.79 16.3178 13.0995 16.3224C12.9772 15.8223 12.883 15.3292 12.8055 14.8201C11.8901 13.8972 10.9047 13.0228 9.84732 12.266C8.39513 11.2266 7.48228 11.2648 7.07403 9.27169C6.94609 9.13957 6.8279 9.00206 6.67191 8.90227ZM18.0684 9.01302C14.3273 9.34787 13.3362 13.2089 14.5862 16.3224H22.5131H26.4581C26.0881 14.081 24.8714 12.0966 23.0229 10.775C21.8456 9.93312 19.587 8.80565 18.0684 9.01302ZM36.0784 9.27169C35.8222 10.2015 35.3537 10.7754 34.5365 11.2784C35.3139 12.8466 34.687 14.7897 33.0996 15.5756C32.5437 15.8508 31.9461 15.9066 31.3343 15.9049C31.255 16.0391 31.1749 16.1712 31.1319 16.3224H32.7846C37.3645 16.3279 34.9697 14.1991 35.6582 13.473C35.869 13.2509 36.2298 13.2213 36.5029 13.1115C38.2738 12.3998 38.1141 9.87644 36.0784 9.27169ZM3.22724 17.6889C3.32686 18.2926 3.47984 18.8825 3.6803 19.4606H36.3831L36.5041 19.0941C36.6441 18.6272 36.7584 18.1671 36.8539 17.6889H3.22724ZM4.44138 20.8196L4.34643 20.827L4.32919 20.8591C5.34393 23.3572 8.9013 25.6319 11.3996 26.2537C11.7654 26.3447 12.5347 26.4477 12.8217 26.5912C13.3785 26.8695 13.4184 28.0535 11.8252 27.7124C12.6238 28.8843 13.599 28.6749 14.8366 28.6749L25.7043 28.6752C26.7873 28.676 27.464 28.6943 28.084 27.7124C26.4287 27.9482 26.7637 26.6919 27.1976 26.5382C28.0594 26.233 28.9956 26.1375 29.9852 25.7651C32.1516 24.781 34.6875 23.0685 35.7239 20.8196L7.91552 20.82C6.75776 20.8199 5.59888 20.8064 4.44138 20.8196Z" fill="#9CC6FF"/>
<path d="M16.6406 12.6828C16.278 11.5464 16.5802 10.4515 17.8702 10.2646C18.3329 10.21 18.831 10.3211 18.8454 10.8773C18.8769 12.0993 17.6264 10.9988 17.8702 12.2092C19.0398 12.1895 19.7983 12.3489 20.6295 13.2958C21.6491 12.8799 22.5024 13.0016 23.4499 13.5854C23.8117 13.5779 24.2855 13.4699 24.6021 13.6855C25.2219 14.1076 24.8813 14.8518 24.0434 14.949C23.3793 16.0456 22.8741 14.9206 22.5132 14.6211C21.1591 14.0112 21.0836 15.0958 20.375 15.0989C19.6997 15.1018 19.7328 14.3344 19.3084 13.9415C18.6539 13.3357 17.4756 13.4867 17.0629 14.3041C16.9638 14.5003 16.8972 14.7331 16.7398 14.892C16.1077 15.5304 14.6972 14.5577 16.6406 12.6828Z" fill="#9CC6FF"/>
</svg>
