<svg width="38" height="30" viewBox="0 0 38 30" fill="none" xmlns="http://www.w3.org/2000/svg">
<path d="M1.37769 14.6725C1.98817 14.1126 3.2882 13.397 4.01035 12.9501L22.5058 1.45952C23.2623 0.99265 24.3659 0.124796 25.2307 0.00743779C26.3681 -0.102078 27.0198 1.02175 27.6138 1.80033L36.4464 13.4134C36.7561 13.8184 37.0896 14.178 37.2458 14.6725C36.6454 14.7382 35.7028 14.672 35.0626 14.6721L13.5227 14.6725H1.37769ZM25.4338 4.07487C25.2211 4.19006 25.1596 4.26849 25.0778 4.49495C25.2073 5.04791 25.7183 5.43261 26.0814 5.84707C27.5849 7.56294 29.1761 9.31971 30.7314 10.993C30.9545 11.2329 31.1847 11.6453 31.5396 11.6818C32.4386 11.3795 31.2478 10.4009 30.9111 10.0109L27.1722 5.61406C26.7773 5.15739 26.0536 4.01563 25.4338 4.07487Z" fill="#9CC6FF"/>
<path d="M1.07381 20.1915C0.63055 19.7353 0.415673 19.275 0.410011 18.6363L0.40785 17.0152C0.408823 15.8334 0.287993 15.6142 1.66192 15.6252L2.69672 15.6285H37.5489L37.5496 17.5921C37.5538 18.9206 37.7177 19.0771 37.0043 20.1915C37.7209 21.2095 37.8421 22.5111 36.8952 23.4456C36.3671 23.9667 35.8925 23.9801 35.1921 23.9733L3.40406 23.975C2.06518 23.9763 0.743996 23.9796 0.478502 22.1868C0.3647 21.4183 0.62529 20.7984 1.07381 20.1915ZM1.201 18.8321C1.63656 20.4193 2.62248 19.7738 3.91174 19.9745C4.76738 20.1078 5.26588 20.4342 6.02799 20.7019C6.93093 21.0191 8.89086 21.0061 9.7895 20.7244C10.3244 20.5568 10.8133 20.2747 11.3534 20.1181C13.4338 19.5144 15.0341 19.9909 16.9224 20.6499C18.55 21.2178 20.3204 20.8971 21.8742 20.2987C23.1106 19.8225 25.0153 19.767 26.2883 20.0546C26.8337 20.1777 27.3 20.4273 27.8175 20.6203C28.7337 20.9619 29.9477 20.9788 30.9221 20.8833C32.0055 20.777 32.835 20.2732 33.8823 20.0677C34.7526 19.9576 36.0413 20.1243 36.5718 19.4502C37.2751 18.5566 35.0279 18.8321 34.6505 18.8321L2.25561 18.831C1.9067 18.8306 1.54868 18.8122 1.201 18.8321ZM36.2764 20.6172C35.3682 20.9016 34.6327 20.7126 33.7815 20.9058C33.3433 21.0052 32.9475 21.209 32.5313 21.3699C31.1981 21.8856 29.3359 21.9024 27.9874 21.5476C27.4716 21.4118 26.999 21.1793 26.4998 20.9994C25.34 20.5816 23.5131 20.6093 22.3403 21.0435C21.9571 21.1854 21.5883 21.3576 21.195 21.4711C19.8831 21.8499 17.8043 21.8837 16.4787 21.3972C15.0138 20.8596 14.8828 20.7215 13.2513 20.7241C11.5523 20.7269 11.4106 21.1135 9.91237 21.5474C8.62256 21.9209 6.58329 21.848 5.32371 21.3161C3.81513 20.6789 3.48807 20.7236 1.81115 20.7281C1.72041 20.7949 1.6405 20.8595 1.56245 20.9414C1.10316 21.4986 1.14056 22.4457 1.72542 22.907C2.25583 23.3254 4.0791 23.1458 4.77346 23.1463L34.5013 23.1478C34.9264 23.1493 35.3893 23.1877 35.8096 23.1302C36.9913 22.9686 37.0066 21.0323 36.2764 20.6172Z" fill="#9CC6FF"/>
<path d="M2.99503 29.9993C1.54093 29.9921 0.242585 29.7806 0.226929 27.9677L0.227705 27.1582C0.22137 24.9531 1.30708 24.8259 3.21036 24.8231L35.046 24.8223C36.7872 24.7478 37.7919 25.1242 37.7728 27.0355C37.7487 29.4602 37.5014 30.0016 34.9909 30L2.99503 29.9993ZM1.98359 25.6527C1.52572 25.7455 1.17049 26.0389 1.07385 26.4993H36.1864H37.0044C36.5719 25.3565 35.3699 25.6514 34.3486 25.6515L2.91319 25.6497C2.60847 25.6467 2.28693 25.6212 1.98359 25.6527Z" fill="#9CC6FF"/>
</svg>
