<svg width="48" height="30" viewBox="0 0 48 30" fill="none" xmlns="http://www.w3.org/2000/svg">
<path d="M29.6291 2.72427C30.4616 0.646792 31.62 0.997946 33.6468 0.635169L35.9455 0.21902C36.4171 0.134843 36.8943 0.0322719 37.3727 0C38.6724 0.00789872 38.9328 1.06215 39.3729 2.05841L40.8629 5.37384C41.5317 6.86635 41.4483 6.4124 42.8501 7.3422C46.869 10.008 48.9251 14.87 47.0624 19.4937C45.1559 24.226 39.5092 27.0727 34.8097 28.4727C27.2397 30.7279 17.7841 30.5433 10.4454 27.533C8.20263 26.5583 5.96 25.4119 4.08943 23.8132C3.66943 23.4542 3.36364 23.1343 2.8389 22.9381C1.80983 22.5533 1.32149 21.5989 1.61114 20.5298C-0.054401 17.7666 -0.238734 14.5372 1.28616 11.6339C3.51005 7.39963 8.38701 4.71508 12.7907 3.34465C14.9576 -0.347657 19.6196 -0.958339 22.3997 2.34648C24.9168 2.16346 27.1322 2.36725 29.6291 2.72427ZM42.1778 8.27357C42.2364 8.50793 42.3829 8.75956 42.4908 8.97542C43.635 11.2638 43.552 11.5365 42.1877 13.8008C41.825 14.4027 41.4761 15.0765 41.3067 15.7595C41.0711 16.7097 41.5703 17.7405 41.2686 19.0546C43.8201 19.1183 43.7703 22.7429 41.3603 23.0056C40.91 23.0547 40.438 23.0298 39.9847 23.0299L27.6017 23.0271C27.1977 23.0264 26.7683 22.9972 26.3675 23.0339C26.0001 23.0675 25.7101 23.3374 25.3242 23.329C24.876 23.319 24.5089 23.0338 24.0533 23.0246C23.4166 23.0118 22.7755 23.0292 22.1381 23.0293L4.98817 23.0294C6.35383 24.0993 7.617 24.9311 9.1902 25.6792C16.1837 29.1773 25.2728 29.6108 32.7957 27.8335C38.9989 26.3679 48.2945 21.7773 46.3819 13.9491C45.8616 11.8192 44.0828 9.43626 42.1778 8.27357ZM37.232 1.15445C35.4929 1.46431 32.8586 1.7815 31.2441 2.26603C31.3916 2.68534 31.5946 3.08614 31.7839 3.48796L36.9202 14.5708C37.4031 15.6432 38.0075 16.6969 38.4074 17.8024C38.753 18.4748 38.9816 19.1974 39.324 19.8698C40.9978 18.4469 39.7778 17.2922 40.135 15.6628C40.3136 14.8479 40.7084 14.068 41.119 13.3459C42.5244 10.8736 42.3515 11.5417 41.2634 9.05893L38.7572 3.44271C38.4526 2.76715 38.0386 1.03056 37.232 1.15445ZM17.7258 1.37122C15.0113 1.41218 13.1605 3.89441 13.2141 6.48033C13.2393 7.68929 13.6454 8.79116 14.2219 9.8365C15.2123 9.88344 15.9729 10.4849 16.5173 10.4515C17.2097 10.409 17.7685 9.90104 18.4349 9.8365C19.0853 9.75898 19.675 9.80298 20.2937 10.0137C20.4166 9.54571 21.0863 8.94688 21.378 8.53129C19.844 7.27088 20.9211 5.54727 22.5608 6.01724C22.6452 3.50929 20.2888 1.08156 17.7258 1.37122ZM23.7138 3.41687H23.1309C23.7407 4.94674 23.751 5.59805 23.7138 7.21243H27.5302C27.6102 6.98732 27.7011 6.78195 27.8156 6.5723C28.1599 5.62896 28.6502 4.73585 29.0659 3.82287C27.2674 3.54043 25.5342 3.40818 23.7138 3.41687ZM30.4698 3.41687C29.9093 4.69409 29.0268 6.28997 28.6033 7.58017C29.2664 8.18014 30.3909 8.80256 30.9253 9.37916C31.158 9.63012 32.9191 13.8108 33.1143 14.3735C33.4509 15.3435 32.9711 15.8289 32.3589 16.4652C33.4701 17.0542 34.7869 17.684 35.9367 18.2062C36.5659 18.5139 37.1808 18.8889 37.8303 19.1491C37.0211 17.6066 30.6357 3.54765 30.4698 3.41687ZM12.2255 4.76157C6.11054 6.89445 -1.18317 12.2334 2.32238 19.4886C2.47574 19.4147 2.62958 19.3338 2.78735 19.27C3.32713 19.0852 3.86202 19.1826 4.41847 19.1491L4.41661 16.8089C4.41644 14.0803 4.49512 14.1879 6.01308 12.2421C7.1292 10.8115 8.04511 9.18023 10.3803 9.92304C11.7156 10.3478 11.7437 10.5208 13.0661 10.0137C12.4029 8.6518 11.922 7.24211 12.0991 5.70942C12.1134 5.58597 12.263 4.81607 12.2255 4.76157ZM21.8497 7.00842C21.6019 7.21807 21.5509 7.66717 22.0011 7.58017C22.2665 7.315 22.3758 6.974 21.8497 7.00842ZM27.2328 8.33969C26.2249 8.34071 25.2148 8.35571 24.2071 8.33969C24.4834 8.68103 24.8187 8.99641 25.1576 9.27558C25.4232 9.27975 25.688 9.28235 25.9538 9.27558H28.9578C28.5734 8.97407 28.083 8.66534 27.7318 8.33969H27.2328ZM22.7949 8.53129C21.238 10.6867 19.3716 12.7307 17.8784 14.8617C18.0329 15.0566 18.8124 15.9087 19.0097 15.951L19.0877 15.8787C20.2688 14.5468 21.386 13.1561 22.5281 11.791C23.0434 11.175 23.5782 10.3856 24.2071 9.89698C23.6515 9.4753 23.2761 8.90061 22.7949 8.53129ZM25.1576 10.3937C24.8587 10.8164 24.4922 11.1807 24.1675 11.5825C22.8025 13.2715 21.139 15.061 19.8751 16.7752C20.2833 17.1816 25.0264 22.1784 25.2381 22.1666C25.5171 22.151 25.8911 21.6412 26.0771 21.4391C27.2942 20.0812 28.5555 18.7532 29.8222 17.4413L31.2348 15.96C31.5251 15.6521 31.8568 15.3417 32.0904 14.9879C31.665 13.4181 30.5918 11.99 30.2494 10.3937H25.1576ZM9.1902 10.9683C7.75602 11.2421 7.17445 12.7237 6.21834 13.817C7.59872 13.1933 8.68638 13.0022 10.1405 13.5522C11.9402 14.2328 11.9164 14.0909 13.7612 13.5242C14.6624 13.2475 15.7926 13.2837 16.6394 13.7324C16.7955 13.8033 16.9611 13.8688 17.1109 13.9517C17.6311 13.3772 19.1052 11.601 19.4682 10.9683C18.2061 10.9408 17.0976 11.8718 15.8115 11.5392C15.2403 11.3915 14.7884 10.9968 14.1759 10.985C13.1727 10.9657 12.5175 11.6733 11.2494 11.4464C10.5448 11.3203 9.9267 10.8889 9.1902 10.9683ZM8.1294 14.4139C7.14116 14.5576 6.38274 15.0433 5.59365 15.6188V19.1491H16.7358H17.7258C17.9847 18.4558 18.2218 17.7472 18.5277 17.0733C17.9116 16.5899 16.8804 15.7593 16.6394 14.9879C14.6649 14.2529 15.0668 14.4877 13.0669 15.0658C10.8802 15.6977 9.91553 14.2737 8.1294 14.4139ZM31.4855 17.3059C30.9103 17.9256 30.2731 18.5085 29.7255 19.1491H33.5422C34.1064 19.1481 34.6754 19.1306 35.239 19.1491C34.0833 18.6552 32.6031 17.9225 31.4855 17.3059ZM19.4682 17.9416C19.2272 18.3161 19.1056 18.7311 18.9607 19.1491C19.3477 19.1555 19.7345 19.1652 20.1215 19.1491H20.6677C20.2608 18.7582 19.8374 18.3689 19.4682 17.9416ZM40.6753 20.197C38.725 21.9003 38.881 20.5302 37.3428 20.3162C36.9554 20.2624 36.5371 20.3139 36.1458 20.3156L30.1535 20.3155C29.6747 20.3148 29.1499 20.2649 28.6766 20.3166C28.1647 20.7291 27.5683 21.3131 27.2328 21.8814H27.8156L39.7354 21.8816C40.2662 21.8815 40.8383 21.9189 41.3623 21.8367C42.1414 21.7144 42.6014 20.0333 40.6753 20.197ZM3.42169 20.3166C2.61219 20.5553 2.36323 21.4843 3.17525 21.8369C3.40708 21.9376 8.64259 21.8811 9.39782 21.8811L22.5608 21.8814C22.7878 21.8749 23.0126 21.8719 23.2395 21.8814C22.8265 21.3519 22.1704 20.8812 21.8497 20.3166H3.42169Z" fill="#9CC6FF"/>
<path d="M17.8785 5.21787C15.9426 5.48463 15.7876 2.64323 17.6178 2.34647C19.3223 2.49801 19.6576 4.8402 17.8785 5.21787ZM17.6201 3.52676C17.4584 3.58544 17.3747 3.76406 17.4333 3.92587C17.492 4.08768 17.6706 4.17129 17.8324 4.11284C17.9942 4.05417 18.0781 3.87543 18.0194 3.71362C17.9607 3.5517 17.782 3.46808 17.6201 3.52676Z" fill="#9CC6FF"/>
<path d="M20.6147 6.23999C19.9063 6.32078 19.2629 5.82113 19.1657 5.11476C19.0686 4.40839 19.5531 3.75359 20.2571 3.64007C20.7272 3.56424 21.2014 3.74896 21.4964 4.12279C21.7914 4.49663 21.8608 5.00091 21.6777 5.44053C21.4946 5.88003 21.0878 6.18605 20.6147 6.23999ZM20.4366 4.65077C20.3442 4.66261 20.2653 4.72332 20.2302 4.80964C20.1953 4.89597 20.2095 4.99459 20.2675 5.06737C20.3256 5.14026 20.4184 5.17626 20.5104 5.16136C20.6494 5.13891 20.7448 5.00914 20.7246 4.86979C20.7045 4.73043 20.5763 4.63294 20.4366 4.65077Z" fill="#9CC6FF"/>
<path d="M15.4039 6.76265C14.6575 6.90324 13.9386 6.41194 13.7984 5.66551C13.6582 4.91908 14.15 4.20053 14.8964 4.06072C15.6424 3.92103 16.3604 4.41233 16.5004 5.15819C16.6405 5.90394 16.1496 6.62227 15.4039 6.76265ZM15.1001 5.09128C14.8039 5.30725 14.7211 5.6882 15.1967 5.72814C15.4993 5.56012 15.5186 5.0985 15.1001 5.09128Z" fill="#9CC6FF"/>
<path d="M34.7551 6.56495C34.3128 6.60568 33.9216 6.27913 33.8827 5.83657C33.8437 5.39413 34.172 5.00428 34.6146 4.96726C35.0547 4.93037 35.4417 5.25624 35.4804 5.6962C35.5192 6.13605 35.1949 6.52444 34.7551 6.56495Z" fill="#9CC6FF"/>
<path d="M30.9036 8.17066C30.1196 8.21963 29.6969 6.81671 30.2494 6.32947C31.0469 6.32981 31.5388 7.67135 30.9036 8.17066Z" fill="#9CC6FF"/>
<path d="M37.9626 9.0676C37.3646 9.18495 36.7852 8.79295 36.6716 8.19411C36.5581 7.59527 36.9537 7.01844 37.5533 6.90865C38.1476 6.79987 38.7181 7.1912 38.8307 7.78473C38.9432 8.37826 38.5555 8.95137 37.9626 9.0676Z" fill="#9CC6FF"/>
<path d="M18.5371 9.63995C17.8592 9.82072 17.1627 9.41913 16.9795 8.74187C16.7962 8.0645 17.1952 7.36659 17.8718 7.18086C18.552 6.99411 19.2544 7.39559 19.4386 8.07646C19.6228 8.75733 19.2186 9.45828 18.5371 9.63995ZM18.1557 8.10557C18.0246 8.14721 17.9521 8.28724 17.9938 8.41825C18.0355 8.54937 18.1756 8.62181 18.3066 8.58006C18.4376 8.53842 18.51 8.39839 18.4683 8.26738C18.4266 8.13638 18.2867 8.06393 18.1557 8.10557Z" fill="#9CC6FF"/>
<path d="M15.1739 9.65663C14.5184 9.79768 13.8713 9.38582 13.7214 8.73226C13.5716 8.07881 13.9747 7.42615 14.6261 7.2675C15.0554 7.1629 15.5078 7.29751 15.8101 7.61978C16.1124 7.94194 16.2179 8.40198 16.0862 8.82377C15.9544 9.24556 15.6059 9.56377 15.1739 9.65663ZM14.894 8.30449C14.8167 8.32322 14.756 8.3828 14.7356 8.45964C14.7153 8.53637 14.7387 8.61818 14.7965 8.67268C14.8544 8.72718 14.9373 8.74569 15.0128 8.72086C15.1232 8.68442 15.1853 8.5674 15.1534 8.45558C15.1214 8.34364 15.0069 8.27707 14.894 8.30449Z" fill="#9CC6FF"/>
<path d="M32.7337 12.2386C32.1216 12.2073 31.5733 11.1523 32.3589 10.9683C32.9971 10.9839 33.3287 11.9365 32.7337 12.2386Z" fill="#9CC6FF"/>
<path d="M14.4422 12.4704C14.3047 12.5206 14.1509 12.4923 14.0403 12.3964C13.9299 12.3005 13.8802 12.1521 13.9107 12.0089C13.9411 11.8658 14.0469 11.7505 14.1869 11.7079C14.3952 11.6444 14.6163 11.7584 14.6854 11.965C14.7546 12.1715 14.6467 12.3956 14.4422 12.4704Z" fill="#9CC6FF"/>
<path d="M38.2246 13.3938C37.9311 13.4468 37.6317 13.3378 37.4409 13.1086C37.25 12.8793 37.1972 12.5651 37.3026 12.2861C37.408 12.007 37.6552 11.8062 37.9499 11.7602C38.3981 11.6904 38.8191 11.9939 38.8944 12.4413C38.9695 12.8886 38.6711 13.3132 38.2246 13.3938Z" fill="#9CC6FF"/>
<path d="M9.39404 12.6406C9.18224 12.6525 9.00023 12.492 8.98533 12.2805C8.97055 12.0689 9.12853 11.8846 9.33987 11.8668C9.47923 11.8552 9.61407 11.9194 9.69283 12.0349C9.77159 12.1506 9.78198 12.2995 9.72014 12.425C9.6583 12.5504 9.53362 12.6327 9.39404 12.6406Z" fill="#9CC6FF"/>
<path d="M28.606 13.233C28.2625 13.2731 27.9522 13.0258 27.9147 12.682C27.8774 12.3383 28.1272 12.0299 28.4712 11.9953C28.8114 11.961 29.1154 12.2075 29.1524 12.5474C29.1894 12.8871 28.9455 13.1932 28.606 13.233Z" fill="#9CC6FF"/>
<path d="M10.8046 12.9166C10.5988 12.9899 10.3724 12.8841 10.2965 12.6792C10.2207 12.4744 10.3236 12.2467 10.5275 12.1683C10.6617 12.1166 10.8133 12.1412 10.9244 12.2325C11.0354 12.3239 11.0887 12.4679 11.0638 12.6095C11.0391 12.7511 10.9401 12.8684 10.8046 12.9166Z" fill="#9CC6FF"/>
<path d="M16.2537 12.9936C15.6844 13.0495 15.4217 12.543 15.9199 12.2386C16.4916 12.17 16.7163 12.6748 16.2537 12.9936Z" fill="#9CC6FF"/>
<path d="M17.378 13.399C17.1308 13.4339 16.902 13.2621 16.8663 13.015C16.8305 12.768 17.0014 12.5385 17.2484 12.5018C17.4966 12.465 17.7276 12.637 17.7635 12.8854C17.7994 13.1338 17.6266 13.3641 17.378 13.399Z" fill="#9CC6FF"/>
<path d="M12.5576 13.4038C12.0114 13.3546 11.8761 12.6913 12.4334 12.5764C13.0616 12.6269 13.0056 13.1424 12.5576 13.4038Z" fill="#9CC6FF"/>
<path d="M25.557 14.9763C25.336 15.0374 25.0991 14.9743 24.9378 14.8112C24.7764 14.6482 24.7157 14.4106 24.7791 14.1901C24.8425 13.9698 25.02 13.8007 25.2433 13.7483C25.5795 13.6693 25.917 13.8739 26.0025 14.2084C26.0879 14.543 25.8899 14.8844 25.557 14.9763Z" fill="#9CC6FF"/>
<path d="M29.4208 15.6173C29.2009 15.6657 28.9721 15.5922 28.8216 15.4247C28.6712 15.2574 28.6224 15.022 28.6938 14.8085C28.7654 14.5951 28.9463 14.4367 29.1672 14.3937C29.5029 14.3285 29.8288 14.5454 29.8982 14.8803C29.9676 15.2152 29.7548 15.5437 29.4208 15.6173Z" fill="#9CC6FF"/>
<path d="M22.5609 17.3059C21.6803 17.3502 21.5747 15.95 22.2132 15.5329C23.1988 15.4546 23.2105 16.8584 22.5609 17.3059Z" fill="#9CC6FF"/>
<path d="M16.5028 16.3695C15.9956 16.4167 15.6134 15.9051 16.1204 15.6188C16.7157 15.4411 16.9513 16.03 16.5028 16.3695Z" fill="#9CC6FF"/>
<path d="M8.9105 16.3695C8.3392 16.4236 8.0949 15.9218 8.58869 15.6188C9.1706 15.4874 9.38984 16.0774 8.9105 16.3695Z" fill="#9CC6FF"/>
<path d="M12.6491 16.3695C12.0417 16.4295 11.8914 15.8314 12.4336 15.6188C12.9894 15.5707 13.0644 16.1144 12.6491 16.3695Z" fill="#9CC6FF"/>
<path d="M35.4145 17.5815C34.7049 17.5015 33.9658 16.0718 34.7838 15.697C35.4737 15.7988 36.1834 17.21 35.4145 17.5815Z" fill="#9CC6FF"/>
<path d="M24.88 17.7877C24.6614 17.8479 24.4273 17.7855 24.2677 17.6245C24.1082 17.4634 24.0479 17.2288 24.1102 17.0108C24.1726 16.7927 24.3477 16.6253 24.5683 16.573C24.901 16.4939 25.2358 16.6959 25.3207 17.0272C25.4057 17.3584 25.2097 17.6967 24.88 17.7877Z" fill="#9CC6FF"/>
<path d="M27.7309 17.9322C27.5056 17.9796 27.2722 17.9022 27.1199 17.7294C26.9677 17.5568 26.9201 17.3156 26.9953 17.0979C27.0706 16.8803 27.2571 16.7201 27.4835 16.6784C27.8275 16.6149 28.1586 16.8399 28.2263 17.1832C28.294 17.5263 28.0732 17.8602 27.7309 17.9322Z" fill="#9CC6FF"/>
<path d="M10.861 18.0544C10.6553 18.1322 10.4252 18.0318 10.3423 17.8282C10.2592 17.6245 10.3536 17.3918 10.555 17.3036C10.6899 17.2444 10.8464 17.2631 10.9637 17.3525C11.0809 17.442 11.1404 17.5879 11.119 17.7338C11.0977 17.8797 10.999 18.0024 10.861 18.0544Z" fill="#9CC6FF"/>
<path d="M7.24873 18.1209C7.03152 18.1772 6.80911 18.0499 6.74762 17.8342C6.68612 17.6183 6.80798 17.3929 7.02227 17.3262C7.16546 17.2816 7.32163 17.3182 7.43029 17.4216C7.53884 17.5251 7.58285 17.6794 7.54516 17.8247C7.50747 17.9699 7.39396 18.0832 7.24873 18.1209Z" fill="#9CC6FF"/>
<path d="M14.605 18.1175C14.3985 18.2112 14.1551 18.1236 14.0556 17.9201C13.9561 17.7164 14.0365 17.4706 14.2371 17.3652C14.3722 17.2943 14.5351 17.3024 14.6625 17.3863C14.7898 17.4703 14.8615 17.6169 14.8495 17.769C14.8375 17.921 14.7439 18.0546 14.605 18.1175Z" fill="#9CC6FF"/>
</svg>
